<?xml version="1.0" encoding="UTF-8"?>
<svg version="1.1" xmlns="http://www.w3.org/2000/svg" width="500" height="500">
<path d="M0 0 C165 0 330 0 500 0 C500 165 500 330 500 500 C335 500 170 500 0 500 C0 335 0 170 0 0 Z " fill="#FEFEFF" transform="translate(0,0)"/>
<path d="M0 0 C20.91941274 17.96494123 32.89083769 42.43151097 35.375 69.8125 C36.43922808 86.84014926 33.91792236 103.44460157 26.375 118.8125 C26.05789063 119.4631543 25.74078125 120.11380859 25.4140625 120.78417969 C12.31379212 147.04819074 -9.9514825 164.53013851 -37.625 173.8125 C-42.70408827 175.13212455 -47.38182198 175.8125 -52.625 175.8125 C-52.625 153.3725 -52.625 130.9325 -52.625 107.8125 C-43.385 107.8125 -34.145 107.8125 -24.625 107.8125 C-24.295 103.5225 -23.965 99.2325 -23.625 94.8125 C-23.00372796 91.48657379 -22.35874199 88.27458132 -21.5625 85 C-20.923125 82.298125 -20.28375 79.59625 -19.625 76.8125 C-30.515 76.8125 -41.405 76.8125 -52.625 76.8125 C-53.23929267 56.08012229 -53.23929267 56.08012229 -48.625 49.8125 C-44.06254493 45.12998033 -39.08767234 43.70702398 -32.6640625 43.6171875 C-30.85925825 43.62849717 -29.05453421 43.65429492 -27.25 43.6875 C-24.07375 43.72875 -20.8975 43.77 -17.625 43.8125 C-17.625 34.5725 -17.625 25.3325 -17.625 15.8125 C-42.10820218 13.07688837 -42.10820218 13.07688837 -65.625 18.8125 C-66.53121094 19.23660156 -67.43742187 19.66070312 -68.37109375 20.09765625 C-77.75231218 25.10190204 -82.56235146 32.31314522 -85.8984375 42.234375 C-87.22137732 46.92867757 -87.77959621 51.32961436 -87.94140625 56.20703125 C-87.98330078 57.40908203 -88.02519531 58.61113281 -88.06835938 59.84960938 C-88.10767578 61.09548828 -88.14699219 62.34136719 -88.1875 63.625 C-88.25227539 65.52282227 -88.25227539 65.52282227 -88.31835938 67.45898438 C-88.42424407 70.5767004 -88.52510774 73.69458622 -88.625 76.8125 C-95.555 76.8125 -102.485 76.8125 -109.625 76.8125 C-109.625 87.0425 -109.625 97.2725 -109.625 107.8125 C-102.695 107.8125 -95.765 107.8125 -88.625 107.8125 C-88.625 129.5925 -88.625 151.3725 -88.625 173.8125 C-113.69808846 168.24070256 -134.40119528 153.04295694 -148.625 131.8125 C-162.84995795 108.91378721 -168.23656663 82.43817043 -163.5 55.8125 C-158.98581145 36.85290808 -149.64332159 21.09129448 -136.625 6.8125 C-136.03074219 6.13574219 -135.43648437 5.45898438 -134.82421875 4.76171875 C-122.83997778 -8.17412448 -104.54025921 -17.0565241 -87.625 -21.1875 C-86.74585938 -21.41179687 -85.86671875 -21.63609375 -84.9609375 -21.8671875 C-54.72553563 -28.22794928 -23.56687731 -19.47359116 0 0 Z " fill="#0966FF" transform="translate(314.625,173.1875)"/>
</svg>
