<?xml version="1.0" encoding="UTF-8"?>
<svg version="1.1" xmlns="http://www.w3.org/2000/svg" width="500" height="500">
<path d="M0 0 C165 0 330 0 500 0 C500 165 500 330 500 500 C335 500 170 500 0 500 C0 335 0 170 0 0 Z " fill="#FEFEFE" transform="translate(0,0)"/>
<path d="M0 0 C2.69834906 0.00261737 5.39666594 -0.00227763 8.09501076 -0.00684452 C64.95185539 -0.08929974 64.95185539 -0.08929974 81.56433105 15.51757812 C98.21920585 33.24834922 99.24651444 55.67100826 99.2088623 78.75976562 C99.20953864 80.24649064 99.21051139 81.73321554 99.21176147 83.21994019 C99.21322571 86.32111677 99.21112713 89.42226433 99.2064209 92.5234375 C99.20075371 96.44320617 99.20409454 100.3629066 99.2098465 104.28267288 C99.2864696 165.14052577 99.2864696 165.14052577 82.4510498 182.80664062 C65.19516209 199.66518882 42.85035754 200.29849217 19.9510498 200.25976562 C18.51395654 200.26044222 17.07686339 200.26141517 15.63977051 200.26266479 C12.64114279 200.26412888 9.64254509 200.26203165 6.6439209 200.25732422 C2.86327455 200.25166835 -0.91730081 200.25498566 -4.69794464 200.2607584 C-31.27595844 200.29536247 -31.27595844 200.29536247 -43.6427002 199.69335938 C-44.41170654 199.65618805 -45.18071289 199.61901672 -45.97302246 199.58071899 C-63.18528521 198.58620976 -76.30810117 191.49404035 -87.9239502 178.97070312 C-104.95354915 158.71135264 -101.11275461 128.67884449 -101.10925293 103.9453125 C-101.10917173 100.90684042 -101.11611823 97.8685193 -101.12976074 94.83007812 C-101.39125485 35.58660926 -101.39125485 35.58660926 -83.4239502 16.00195312 C-71.92315884 4.89833625 -57.47349037 1.19857958 -41.9473877 0.56445312 C-40.9546434 0.5229715 -39.96189911 0.48148987 -38.93907166 0.43875122 C-25.96311829 -0.04932763 -12.9832292 -0.02212467 0 0 Z " fill="#FEFEFE" transform="translate(250.9239501953125,149.873046875)"/>
<path d="M0 0 C2.69834906 0.00261737 5.39666594 -0.00227763 8.09501076 -0.00684452 C64.95185539 -0.08929974 64.95185539 -0.08929974 81.56433105 15.51757812 C98.21920585 33.24834922 99.24651444 55.67100826 99.2088623 78.75976562 C99.20953864 80.24649064 99.21051139 81.73321554 99.21176147 83.21994019 C99.21322571 86.32111677 99.21112713 89.42226433 99.2064209 92.5234375 C99.20075371 96.44320617 99.20409454 100.3629066 99.2098465 104.28267288 C99.2864696 165.14052577 99.2864696 165.14052577 82.4510498 182.80664062 C65.19516209 199.66518882 42.85035754 200.29849217 19.9510498 200.25976562 C18.51395654 200.26044222 17.07686339 200.26141517 15.63977051 200.26266479 C12.64114279 200.26412888 9.64254509 200.26203165 6.6439209 200.25732422 C2.86327455 200.25166835 -0.91730081 200.25498566 -4.69794464 200.2607584 C-31.27595844 200.29536247 -31.27595844 200.29536247 -43.6427002 199.69335938 C-44.41170654 199.65618805 -45.18071289 199.61901672 -45.97302246 199.58071899 C-63.18528521 198.58620976 -76.30810117 191.49404035 -87.9239502 178.97070312 C-104.95354915 158.71135264 -101.11275461 128.67884449 -101.10925293 103.9453125 C-101.10917173 100.90684042 -101.11611823 97.8685193 -101.12976074 94.83007812 C-101.39125485 35.58660926 -101.39125485 35.58660926 -83.4239502 16.00195312 C-71.92315884 4.89833625 -57.47349037 1.19857958 -41.9473877 0.56445312 C-40.9546434 0.5229715 -39.96189911 0.48148987 -38.93907166 0.43875122 C-25.96311829 -0.04932763 -12.9832292 -0.02212467 0 0 Z M-74.0489502 31.00195312 C-83.89322376 43.94580905 -83.23018443 59.68926343 -83.1895752 75.18164062 C-83.19092612 77.01425223 -83.19287019 78.84686348 -83.19537354 80.67947388 C-83.1983062 84.50363609 -83.19408836 88.32770427 -83.18469238 92.15185547 C-83.17331529 97.01536005 -83.17985822 101.87864338 -83.19183731 106.74213982 C-83.19912025 110.5223248 -83.19673842 114.30245875 -83.19158173 118.08264542 C-83.1902621 119.87411654 -83.19183263 121.66559253 -83.19654083 123.45705795 C-83.49371998 148.85443858 -83.49371998 148.85443858 -71.63879395 170.44726562 C-58.96976828 182.85656183 -42.46830708 182.43872155 -25.8145752 182.39257812 C-24.07643581 182.39392956 -22.3382968 182.39587404 -20.60015869 182.39837646 C-16.9727007 182.4013084 -13.34534187 182.39709483 -9.71789551 182.38769531 C-5.11465622 182.3763363 -0.51165117 182.38285011 4.09157944 182.39484024 C7.67797542 182.40214071 11.26431785 182.39973322 14.85071564 182.39458466 C16.54563679 182.39326887 18.24056313 182.3948214 19.93547821 182.39954376 C46.65164635 182.8540793 46.65164635 182.8540793 69.43151855 170.84179688 C82.08228935 157.65013802 81.38544453 140.74193532 81.3416748 123.56445312 C81.34302538 121.68220978 81.34496917 119.79996677 81.34747314 117.91772461 C81.35040593 113.99101408 81.34618656 110.06439512 81.33679199 106.13769531 C81.32539863 101.13499153 81.33196804 96.13250245 81.34393692 91.12980652 C81.35120561 87.24847837 81.34884472 83.36720011 81.34368134 79.48587036 C81.34235866 77.64250665 81.3439434 75.79913823 81.34864044 73.95578003 C81.38176304 57.30831231 81.1787939 40.96073546 69.0760498 28.12695312 C62.82992666 22.63831211 56.13518613 20.63872094 48.0760498 19.12695312 C47.19929596 18.95375046 46.32254211 18.78054779 45.41921997 18.60209656 C41.49607177 18.04452455 37.64361035 17.97934394 33.6907959 17.98168945 C32.87038818 17.97833084 32.04998047 17.97497223 31.20471191 17.97151184 C28.50295479 17.9620445 25.80125997 17.96006054 23.0994873 17.95898438 C21.20866877 17.95576778 19.31785049 17.9524034 17.42703247 17.94889832 C13.46449202 17.9429168 9.50197335 17.9410573 5.53942871 17.94165039 C0.48948621 17.94175171 -4.56031472 17.92812683 -9.61022377 17.91087818 C-13.51728949 17.89969509 -17.42432174 17.89773315 -21.33140182 17.89826012 C-23.19151673 17.89708844 -25.05163274 17.89271289 -26.91173172 17.88492775 C-43.62232887 17.8215604 -61.72960192 17.81207275 -74.0489502 31.00195312 Z " fill="#F6CF4D" transform="translate(250.9239501953125,149.873046875)"/>
<path d="M0 0 C0.72574219 -0.01224609 1.45148438 -0.02449219 2.19921875 -0.03710938 C15.40175274 -0.07241027 28.31471047 5.83879186 37.7890625 14.9609375 C48.6323189 27.27300154 52.74385148 41.00980646 51.75 57.1875 C49.78140768 70.38374172 43.8440338 82.63966867 33.3984375 91.08984375 C20.79223957 100.32007846 8.34099532 103.45377373 -7.25 102.1875 C-19.95405942 99.69484174 -32.34292337 93.14816156 -40.16015625 82.61328125 C-49.22994285 68.80640865 -52.54550062 54.97869322 -49.6015625 38.57421875 C-45.76972609 24.90078541 -37.60746989 14.16328257 -25.72265625 6.5390625 C-17.51522585 2.05285252 -9.27431388 0.00806462 0 0 Z " fill="#E93BA9" transform="translate(249.25,198.8125)"/>
<path d="M0 0 C2.69834906 0.00261737 5.39666594 -0.00227763 8.09501076 -0.00684452 C64.79009716 -0.08906515 64.79009716 -0.08906515 81.6072998 15.61523438 C88.0760498 22.27322972 88.0760498 22.27322972 88.0760498 26.12695312 C87.5191748 26.35382813 86.9622998 26.58070313 86.3885498 26.81445312 C82.77031758 28.86804439 80.20312203 31.91639406 77.3885498 34.93945312 C76.0760498 36.12695312 76.0760498 36.12695312 74.0760498 36.12695312 C73.3954248 35.09570312 72.7147998 34.06445312 72.0135498 33.00195312 C66.15960073 24.59540998 57.7827945 21.94778648 48.0760498 20.12695312 C47.19929596 19.95375046 46.32254211 19.78054779 45.41921997 19.60209656 C41.49607177 19.04452455 37.64361035 18.97934394 33.6907959 18.98168945 C32.87038818 18.97833084 32.04998047 18.97497223 31.20471191 18.97151184 C28.50295479 18.9620445 25.80125997 18.96006054 23.0994873 18.95898438 C21.20866877 18.95576778 19.31785049 18.9524034 17.42703247 18.94889832 C13.46449202 18.9429168 9.50197335 18.9410573 5.53942871 18.94165039 C0.48948621 18.94175171 -4.56031472 18.92812683 -9.61022377 18.91087818 C-13.51728949 18.89969509 -17.42432174 18.89773315 -21.33140182 18.89826012 C-23.19151673 18.89708844 -25.05163274 18.89271289 -26.91173172 18.88492775 C-51.37879339 18.72393671 -51.37879339 18.72393671 -72.2598877 30.34179688 C-81.05859523 41.20096124 -81.9780733 53.69066364 -82.5802002 67.19335938 C-82.9239502 70.12695312 -82.9239502 70.12695312 -84.9239502 73.12695312 C-85.9139502 73.12695312 -86.9039502 73.12695312 -87.9239502 73.12695312 C-87.9239502 73.78695312 -87.9239502 74.44695312 -87.9239502 75.12695312 C-89.1820752 75.31257813 -90.4402002 75.49820313 -91.7364502 75.68945312 C-92.79799316 75.84607422 -92.79799316 75.84607422 -93.88098145 76.00585938 C-95.9239502 76.12695312 -95.9239502 76.12695312 -98.9239502 75.12695312 C-99.4189502 76.11695313 -99.4189502 76.11695313 -99.9239502 77.12695312 C-100.01255671 72.89792322 -100.06487265 68.6691382 -100.1114502 64.43945312 C-100.13658691 63.26060547 -100.16172363 62.08175781 -100.18762207 60.8671875 C-100.32391339 44.28507737 -96.09666902 28.79433038 -84.3614502 16.68945312 C-72.62807008 5.29630571 -57.91070889 1.21643673 -41.9473877 0.56445312 C-40.9546434 0.5229715 -39.96189911 0.48148987 -38.93907166 0.43875122 C-25.96311829 -0.04932763 -12.9832292 -0.02212467 0 0 Z " fill="#7E2DF4" transform="translate(250.9239501953125,149.873046875)"/>
<path d="M0 0 C0.63164062 0.41378906 1.26328125 0.82757813 1.9140625 1.25390625 C2.60757813 1.67800781 3.30109375 2.10210937 4.015625 2.5390625 C11.12881852 7.32115327 15.698947 13.98749794 17.9140625 22.25390625 C18.70306545 31.10725327 18.8710712 39.54815129 13.9140625 47.25390625 C13.48996094 47.94871094 13.06585938 48.64351563 12.62890625 49.359375 C7.84069924 56.46832858 1.18164975 61.03847483 -7.0859375 63.25390625 C-15.93928452 64.0429092 -24.38018254 64.21091495 -32.0859375 59.25390625 C-32.78074219 58.82980469 -33.47554687 58.40570313 -34.19140625 57.96875 C-41.30391727 53.17814689 -45.86375973 46.52200914 -48.0859375 38.25390625 C-49.21576076 27.45540321 -48.72883548 18.31613128 -42.0859375 9.25390625 C-31.81247376 -2.4239823 -14.43674655 -7.99873795 0 0 Z " fill="#FEFDFE" transform="translate(265.0859375,219.74609375)"/>
<path d="M0 0 C12.64055757 13.09200606 11.16016109 36.86231499 11.1328125 53.6328125 C11.13348884 55.11953751 11.13446158 56.60626242 11.13571167 58.09298706 C11.1371759 61.19416365 11.13507732 64.2953112 11.13037109 67.39648438 C11.12470391 71.31625305 11.12804474 75.23595347 11.13379669 79.15571976 C11.20977409 139.50072146 11.20977409 139.50072146 -5.9140625 157.96875 C-8 160 -8 160 -11 162 C-12.05404945 158.01803543 -11.84098656 155.01804691 -11 151 C-11.61875 150.938125 -12.2375 150.87625 -12.875 150.8125 C-15 150 -15 150 -16.25 147.4375 C-16.4975 146.633125 -16.745 145.82875 -17 145 C-16.30583984 144.38898438 -16.30583984 144.38898438 -15.59765625 143.765625 C-13.80338427 141.78271318 -13.21551177 140.29298706 -12.4375 137.75 C-12.19128906 136.95207031 -11.94507813 136.15414062 -11.69140625 135.33203125 C-11.46324219 134.56246094 -11.23507812 133.79289063 -11 133 C-10.443125 131.2365625 -10.443125 131.2365625 -9.875 129.4375 C-8.17838549 122.77222873 -7.85064031 116.22559565 -7.85473633 109.38769531 C-7.85137772 108.56699554 -7.8480191 107.74629578 -7.84455872 106.90072632 C-7.83512464 104.20984346 -7.83310934 101.51902333 -7.83203125 98.828125 C-7.82881316 96.94016495 -7.82544868 95.05220515 -7.82194519 93.16424561 C-7.81597256 89.21365786 -7.81410334 85.26309194 -7.81469727 81.3125 C-7.81479872 76.27830901 -7.80115567 71.24425959 -7.78392506 66.21010208 C-7.77274415 62.31161877 -7.77077993 58.41316902 -7.77130699 54.51467133 C-7.77013569 52.66013858 -7.76576229 50.80560472 -7.75797462 48.95108795 C-7.7074495 35.67572279 -8.38189874 23.59482162 -13 11 C-12.54109375 10.61328125 -12.0821875 10.2265625 -11.609375 9.828125 C-8.88377001 7.51479639 -6.21688308 5.21688308 -3.6875 2.6875 C-2 1 -2 1 0 0 Z " fill="#E94777" transform="translate(339,175)"/>
<path d="M0 0 C0.33 0 0.66 0 1 0 C1.33 3.3 1.66 6.6 2 10 C5.63 10 9.26 10 13 10 C13 9.34 13 8.68 13 8 C13.99 7.67 14.98 7.34 16 7 C16.66 6.34 17.32 5.68 18 5 C18.01213028 6.26881516 18.01213028 6.26881516 18.02450562 7.56326294 C18.10293708 15.59403869 18.19036745 23.62465773 18.28752708 31.65522957 C18.33715245 35.78232692 18.38348084 39.90940276 18.421875 44.03662109 C18.45916011 48.03086269 18.50562706 52.02490774 18.55806351 56.01897812 C18.57638096 57.53130467 18.59156923 59.04367296 18.60334396 60.55606461 C18.46390467 82.47718201 18.46390467 82.47718201 27.3125 101.875 C29 104 29 104 28.9375 106.0625 C27.8469284 108.31634798 26.66903549 110.13068025 25 112 C24.34 112 23.68 112 23 112 C22.690625 112.78375 22.38125 113.5675 22.0625 114.375 C21 117 21 117 20 119 C11.29521776 115.12276075 7.58406672 106.8916371 4.21875 98.43359375 C-1.02824763 83.65118696 -0.15610007 66.98766304 -0.09765625 51.46484375 C-0.09578337 49.96456449 -0.0943636 48.46428461 -0.09336853 46.96400452 C-0.08961169 43.07948008 -0.07984285 39.19499506 -0.06866455 35.31048584 C-0.05830046 31.32092827 -0.05383932 27.33136412 -0.04882812 23.34179688 C-0.03821192 15.56118025 -0.02122151 7.78059572 0 0 Z " fill="#F09F3E" transform="translate(150,215)"/>
<path d="M0 0 C2.0625 0.4375 2.0625 0.4375 4 1 C4 1.99 4 2.98 4 4 C4.66 4.33 5.32 4.66 6 5 C6.99 4.67 7.98 4.34 9 4 C9 4.66 9 5.32 9 6 C9.62132812 6.06058594 10.24265625 6.12117187 10.8828125 6.18359375 C13 7 13 7 14.0546875 9.22265625 C14.32539063 10.15980469 14.59609375 11.09695313 14.875 12.0625 C18.03502016 21.48155622 23.162275 27.37492392 32 32 C39.43876727 35.03793013 48.9368901 35.34194174 56.7265625 33.27734375 C58.92816173 32.31657518 60.93758561 31.22951627 63 30 C63.8146875 29.57976562 64.629375 29.15953125 65.46875 28.7265625 C70.42540679 26.19080975 70.42540679 26.19080975 74 22 C80.98591549 21.32394366 80.98591549 21.32394366 84.25 23.5 C84.8275 23.995 85.405 24.49 86 25 C87.32 25 88.64 25 90 25 C88.82179913 33.20430116 83.02058939 38.49784282 76.625 43.3125 C64.51037515 51.63716707 52.66756011 54.19127392 38 53 C25.29594058 50.50734174 12.90707663 43.96066156 5.08984375 33.42578125 C3.27889717 30.66898997 1.61065043 27.87791346 0 25 C-0.42539063 24.2575 -0.85078125 23.515 -1.2890625 22.75 C-4.52028337 16.42703542 -4.78324175 10.01212946 -5 3 C-3.02 3 -1.04 3 1 3 C0.34 2.34 -0.32 1.68 -1 1 C-0.67 0.67 -0.34 0.34 0 0 Z " fill="#EC7052" transform="translate(204,248)"/>
<path d="M0 0 C7.6770728 -0.02339536 15.3541418 -0.04105129 23.03124237 -0.05181217 C26.59782693 -0.0569825 30.16438672 -0.06397072 33.73095703 -0.07543945 C93.66420437 -0.26256283 93.66420437 -0.26256283 110.53125 15.48828125 C117 22.1462766 117 22.1462766 117 26 C116.443125 26.226875 115.88625 26.45375 115.3125 26.6875 C111.69426777 28.74109126 109.12707223 31.78944094 106.3125 34.8125 C105 36 105 36 103 36 C102.319375 34.96875 101.63875 33.9375 100.9375 32.875 C94.44166663 23.54668115 84.79186174 21.43842433 74.17721558 19.47889709 C71.16435137 19.02477244 68.31365982 18.84376871 65.27001953 18.79467773 C64.16933136 18.77473251 63.06864319 18.75478729 61.93460083 18.73423767 C60.76251068 18.71752518 59.59042053 18.70081268 58.3828125 18.68359375 C57.17051971 18.66281265 55.95822693 18.64203156 54.709198 18.62062073 C50.8478547 18.55539018 46.98644509 18.49636349 43.125 18.4375 C40.50259739 18.39428959 37.88020141 18.3506745 35.2578125 18.30664062 C28.83861118 18.19973596 22.41934431 18.0979209 16 18 C18.63738044 15.83849473 19.77428329 15.03038494 23.25 14.5625 C27.75446122 13.88683082 31.0628012 12.19869543 35 10 C34.505 7.525 34.505 7.525 34 5 C34.66 5 35.32 5 36 5 C36 5.99 36 6.98 36 8 C37.98 7.34 39.96 6.68 42 6 C41.34 5.34 40.68 4.68 40 4 C42.64 3.34 45.28 2.68 48 2 C32.16 1.67 16.32 1.34 0 1 C0 0.67 0 0.34 0 0 Z " fill="#D034D2" transform="translate(222,150)"/>
<path d="M0 0 C1.64194345 0.00560879 3.28389198 0.0098728 4.92584229 0.01286316 C9.20677021 0.02421115 13.48738329 0.05358927 17.76818848 0.0869751 C22.15270735 0.11789511 26.53727807 0.13141493 30.921875 0.14648438 C39.4949347 0.17847073 48.06774047 0.22954225 56.640625 0.29296875 C53.640625 2.29296875 53.640625 2.29296875 51.015625 3.29296875 C48.48922562 4.05344137 48.48922562 4.05344137 47.640625 6.29296875 C44.578125 6.91796875 44.578125 6.91796875 41.640625 7.29296875 C41.640625 6.30296875 41.640625 5.31296875 41.640625 4.29296875 C40.980625 4.29296875 40.320625 4.29296875 39.640625 4.29296875 C40.630625 6.76796875 40.630625 6.76796875 41.640625 9.29296875 C37.015625 12.29296875 37.015625 12.29296875 33.640625 12.29296875 C33.310625 12.95296875 32.980625 13.61296875 32.640625 14.29296875 C30.64780743 14.5501065 28.65232639 14.80133027 26.6484375 14.94921875 C24.33080251 15.2060523 24.33080251 15.2060523 21.640625 17.29296875 C18.88843523 17.5337001 16.22845034 17.66579563 13.47265625 17.70703125 C12.67784348 17.7263974 11.8830307 17.74576355 11.06413269 17.76571655 C8.52723905 17.82546317 5.99029991 17.87187758 3.453125 17.91796875 C1.73240216 17.9561531 0.01169835 17.9952051 -1.70898438 18.03515625 C-5.92562665 18.13116054 -10.1423584 18.21520951 -14.359375 18.29296875 C-11.59714222 15.53073597 -9.15230883 15.71440584 -5.359375 15.29296875 C-5.359375 14.63296875 -5.359375 13.97296875 -5.359375 13.29296875 C-1.894375 12.79796875 -1.894375 12.79796875 1.640625 12.29296875 C1.145625 11.30296875 1.145625 11.30296875 0.640625 10.29296875 C-0.679375 10.29296875 -1.999375 10.29296875 -3.359375 10.29296875 C-4.349375 10.29296875 -5.339375 10.29296875 -6.359375 10.29296875 C-7.019375 8.97296875 -7.679375 7.65296875 -8.359375 6.29296875 C-9.019375 7.28296875 -9.679375 8.27296875 -10.359375 9.29296875 C-12.834375 8.30296875 -12.834375 8.30296875 -15.359375 7.29296875 C-15.689375 7.62296875 -16.019375 7.95296875 -16.359375 8.29296875 C-15.369375 8.95296875 -14.379375 9.61296875 -13.359375 10.29296875 C-16.60326443 11.21207075 -19.75288563 11.5757613 -23.109375 11.85546875 C-24.09421875 11.93925781 -25.0790625 12.02304688 -26.09375 12.109375 C-26.84140625 12.16996094 -27.5890625 12.23054687 -28.359375 12.29296875 C-28.689375 11.63296875 -29.019375 10.97296875 -29.359375 10.29296875 C-32.52380267 11.95019362 -32.52380267 11.95019362 -33.109375 14.66796875 C-34.95026784 18.53384371 -37.60852091 19.31524569 -41.359375 21.29296875 C-41.689375 21.95296875 -42.019375 22.61296875 -42.359375 23.29296875 C-44.834375 22.30296875 -44.834375 22.30296875 -47.359375 21.29296875 C-48.019375 22.61296875 -48.679375 23.93296875 -49.359375 25.29296875 C-50.921875 24.04296875 -50.921875 24.04296875 -52.359375 22.29296875 C-51.85066264 17.78050174 -49.14175829 15.41044628 -45.98828125 12.38671875 C-32.37077358 1.54127431 -16.75487896 -0.17007847 0 0 Z " fill="#A02BD8" transform="translate(216.359375,150.70703125)"/>
<path d="M0 0 C0.66 0 1.32 0 2 0 C2.05071337 7.74126386 2.08573928 15.48248486 2.10986328 23.22387695 C2.1199203 25.85735678 2.1335676 28.49082545 2.15087891 31.12426758 C2.1751399 34.909696 2.1864862 38.69497676 2.1953125 42.48046875 C2.20563507 43.65772018 2.21595764 44.83497162 2.22659302 46.04789734 C2.22674408 47.14866104 2.22689514 48.24942474 2.22705078 49.38354492 C2.231492 50.34951096 2.23593323 51.31547699 2.24050903 52.31071472 C1.97973132 55.22663705 1.19321116 57.34057127 0 60 C-0.33 60.99 -0.66 61.98 -1 63 C-2.485 63.495 -2.485 63.495 -4 64 C-4 64.99 -4 65.98 -4 67 C-4.99 67 -5.98 67 -7 67 C-6.67 68.65 -6.34 70.3 -6 72 C-7.98 72.99 -7.98 72.99 -10 74 C-10.66 72.68 -11.32 71.36 -12 70 C-12.12375 71.299375 -12.2475 72.59875 -12.375 73.9375 C-12.5859375 76.15234375 -12.5859375 76.15234375 -13 78 C-13.99 78.495 -13.99 78.495 -15 79 C-15 56.89 -15 34.78 -15 12 C-14.34 11.67 -13.68 11.34 -13 11 C-13 10.01 -13 9.02 -13 8 C-9.66666667 5 -9.66666667 5 -7 5 C-6.67 5.66 -6.34 6.32 -6 7 C-5.59007812 6.4946875 -5.18015625 5.989375 -4.7578125 5.46875 C-4.21898437 4.8190625 -3.68015625 4.169375 -3.125 3.5 C-2.59132813 2.8503125 -2.05765625 2.200625 -1.5078125 1.53125 C-1.01023437 1.0259375 -0.51265625 0.520625 0 0 Z " fill="#E73565" transform="translate(347,216)"/>
<path d="M0 0 C0.33 0 0.66 0 1 0 C1.33 3.3 1.66 6.6 2 10 C5.63 10 9.26 10 13 10 C13 9.34 13 8.68 13 8 C13.99 7.67 14.98 7.34 16 7 C16.66 6.34 17.32 5.68 18 5 C18.02488901 10.2469855 18.04294884 15.49393592 18.05493164 20.7409668 C18.05993201 22.52254842 18.06673446 24.30412599 18.07543945 26.08569336 C18.08769464 28.6600037 18.09327142 31.23425936 18.09765625 33.80859375 C18.10281754 34.59334579 18.10797882 35.37809784 18.11329651 36.18663025 C18.11476875 51.00257132 18.11476875 51.00257132 15 56 C12.25 57.265625 12.25 57.265625 9 58.25 C7.9275 58.58515625 6.855 58.9203125 5.75 59.265625 C3 60 3 60 1 60 C1 62.64 1 65.28 1 68 C0.67 68 0.34 68 0 68 C0 45.56 0 23.12 0 0 Z " fill="#EA495A" transform="translate(150,215)"/>
<path d="M0 0 C12.78292503 13.23945806 11.15925558 37.34069667 11.09765625 54.265625 C11.09578621 55.79547072 11.09436509 57.32531704 11.09336853 58.85516357 C11.0895894 62.84004431 11.07979966 66.82488735 11.06866455 70.80975342 C11.05835022 74.89269501 11.05384965 78.97564282 11.04882812 83.05859375 C11.03817224 91.03907961 11.02115269 99.01953509 11 107 C10.67 107 10.34 107 10 107 C10 85.22 10 63.44 10 41 C8.48954741 42.51045259 6.99169135 44.03351637 5.5 45.5625 C3 48 3 48 1 49 C1 48.01 1 47.02 1 46 C0.34 46 -0.32 46 -1 46 C-1.33 46.66 -1.66 47.32 -2 48 C-2.99 48.66 -3.98 49.32 -5 50 C-4.34 50.66 -3.68 51.32 -3 52 C-4.98 52.495 -4.98 52.495 -7 53 C-7.01981934 52.42668945 -7.03963867 51.85337891 -7.06005859 51.26269531 C-7.56539139 37.3423124 -8.16112659 24.1969275 -13 11 C-12.54109375 10.61328125 -12.0821875 10.2265625 -11.609375 9.828125 C-8.88377001 7.51479639 -6.21688308 5.21688308 -3.6875 2.6875 C-2 1 -2 1 0 0 Z " fill="#E9388B" transform="translate(339,175)"/>
<path d="M0 0 C0.495 1.485 0.495 1.485 1 3 C0.484375 3.391875 -0.03125 3.78375 -0.5625 4.1875 C-1.036875 4.785625 -1.51125 5.38375 -2 6 C-1.76956136 8.65466049 -1.76956136 8.65466049 -1 11 C0.32 11.33 1.64 11.66 3 12 C3.60394932 16.14711865 3.84789504 19.87638624 3 24 C0.13028707 27.04576894 -3.14787703 28.46888932 -7 30 C-7.7528125 30.31324219 -8.505625 30.62648438 -9.28125 30.94921875 C-18.96056012 34.54389008 -28.75455609 35.32184641 -39 35 C-39.66 31.7 -40.32 28.4 -41 25 C-41.99 24.67 -42.98 24.34 -44 24 C-43.67 23.34 -43.34 22.68 -43 22 C-43.39938767 19.90178785 -43.39938767 19.90178785 -44 18 C-42.27716797 17.85304688 -42.27716797 17.85304688 -40.51953125 17.703125 C-24.88763301 16.24797421 -11.86957791 14.12235649 -1.3203125 1.609375 C-0.88460937 1.07828125 -0.44890625 0.5471875 0 0 Z " fill="#EC743C" transform="translate(325,314)"/>
<path d="M0 0 C3.375 0.3125 3.375 0.3125 7 1 C7.66 1.99 8.32 2.98 9 4 C10.91595089 5.1433257 10.91595089 5.1433257 13.0625 6.0625 C16.89381564 7.78763127 16.89381564 7.78763127 18 10 C15.525 9.505 15.525 9.505 13 9 C16.23507998 13.4114727 19.84557192 13.84694558 24.953125 14.703125 C25.62859375 14.80109375 26.3040625 14.8990625 27 15 C27 15.99 27 16.98 27 18 C26.01 18 25.02 18 24 18 C24 18.66 24 19.32 24 20 C24.721875 19.814375 25.44375 19.62875 26.1875 19.4375 C29.12826973 18.98004693 31.14103058 19.26483643 34 20 C34 20.99 34 21.98 34 23 C35.32 23.33 36.64 23.66 38 24 C37.67 23.67 37.34 23.34 37 23 C37.99 22.67 38.98 22.34 40 22 C40.66 22.66 41.32 23.32 42 24 C41.34 24 40.68 24 40 24 C40.56362302 26.04836882 40.56362302 26.04836882 42 28 C45.05908413 28.81584568 45.05908413 28.81584568 48 29 C47.67 28.67 47.34 28.34 47 28 C47.33 27.34 47.66 26.68 48 26 C48.99 26.33 49.98 26.66 51 27 C51 27.99 51 28.98 51 30 C53.28453433 31.14226716 55.62508799 32.06253473 58 33 C57.34 31.68 56.68 30.36 56 29 C60.455 29.99 60.455 29.99 65 31 C64 34 64 34 62 36 C62 36.66 62 37.32 62 38 C48.68318741 41.10221202 35.51272293 38.91129291 23.6875 32.1875 C12.22458018 24.73103759 4.59703435 14.99161882 0 2 C0 1.34 0 0.68 0 0 Z " fill="#EC7642" transform="translate(200,262)"/>
<path d="M0 0 C-1.47285072 2.94570143 -3.64651083 3.30204823 -6.625 4.625 C-14.71725288 8.59424043 -19.84903478 13.98280252 -23.2890625 22.34765625 C-24.74504656 27.7795968 -24.84075934 33.40269067 -25 39 C-25.763125 38.649375 -26.52625 38.29875 -27.3125 37.9375 C-30.04759379 36.67639116 -30.04759379 36.67639116 -33 38 C-33.99 37.34 -34.98 36.68 -36 36 C-35.67 35.01 -35.34 34.02 -35 33 C-35.99 33 -36.98 33 -38 33 C-37.34 33.66 -36.68 34.32 -36 35 C-39.01031744 35.93423645 -39.86650268 36.04449911 -43 35 C-43.75755132 25.6779101 -41.80087619 16.42296007 -37.125 8.25 C-34.49490935 5.46519813 -32.76685419 5.17122065 -29 5 C-29 4.01 -29 3.02 -29 2 C-28.278125 2.2475 -27.55625 2.495 -26.8125 2.75 C-22.93009121 3.095103 -21.93070637 1.43034187 -19 -1 C-16 -1.6875 -16 -1.6875 -13 -2 C-11.824375 -2.37125 -11.824375 -2.37125 -10.625 -2.75 C-6.67881027 -3.12582759 -3.57241263 -1.5690249 0 0 Z " fill="#E93D9A" transform="translate(242,216)"/>
<path d="M0 0 C7.6770728 -0.02339536 15.3541418 -0.04105129 23.03124237 -0.05181217 C26.59782693 -0.0569825 30.16438672 -0.06397072 33.73095703 -0.07543945 C74.06938904 -0.20156954 74.06938904 -0.20156954 87 3 C86.34 4.65 85.68 6.3 85 8 C84.01 7.01 84.01 7.01 83 6 C82.34 7.65 81.68 9.3 81 11 C77.89448334 11 76.64738916 10.4606285 74 9 C73.67 9.66 73.34 10.32 73 11 C67.61702801 13.45237904 61.77254744 14.53222611 55.96875 15.47265625 C55.3190625 15.64667969 54.669375 15.82070312 54 16 C53.67 16.66 53.34 17.32 53 18 C40.79 18 28.58 18 16 18 C20 15 20 15 23.25 14.5625 C27.75446122 13.88683082 31.0628012 12.19869543 35 10 C34.505 7.525 34.505 7.525 34 5 C34.66 5 35.32 5 36 5 C36 5.99 36 6.98 36 8 C37.98 7.34 39.96 6.68 42 6 C41.34 5.34 40.68 4.68 40 4 C42.64 3.34 45.28 2.68 48 2 C32.16 1.67 16.32 1.34 0 1 C0 0.67 0 0.34 0 0 Z " fill="#B32ED9" transform="translate(222,150)"/>
<path d="M0 0 C1.57264618 0.00636726 1.57264618 0.00636726 3.17706299 0.01286316 C6.47769474 0.0294597 9.7776824 0.06707466 13.078125 0.10546875 C15.33592859 0.12054022 17.59374189 0.13422427 19.8515625 0.14648438 C25.34396432 0.17930042 30.83599863 0.22930489 36.328125 0.29296875 C32.578125 2.29296875 32.578125 2.29296875 30.328125 2.29296875 C29.998125 2.95296875 29.668125 3.61296875 29.328125 4.29296875 C26.028125 4.29296875 22.728125 4.29296875 19.328125 4.29296875 C19.328125 4.95296875 19.328125 5.61296875 19.328125 6.29296875 C16.22766413 7.32645571 15.27202282 7.47052788 12.328125 6.29296875 C11.833125 4.80796875 11.833125 4.80796875 11.328125 3.29296875 C10.998125 4.61296875 10.668125 5.93296875 10.328125 7.29296875 C9.565 7.23109375 8.801875 7.16921875 8.015625 7.10546875 C4.82159663 7.32830794 4.4060257 8.02616799 2.328125 10.29296875 C1.338125 10.29296875 0.348125 10.29296875 -0.671875 10.29296875 C-1.331875 8.97296875 -1.991875 7.65296875 -2.671875 6.29296875 C-3.331875 7.28296875 -3.991875 8.27296875 -4.671875 9.29296875 C-7.146875 8.30296875 -7.146875 8.30296875 -9.671875 7.29296875 C-10.001875 7.62296875 -10.331875 7.95296875 -10.671875 8.29296875 C-9.681875 8.95296875 -8.691875 9.61296875 -7.671875 10.29296875 C-10.91576443 11.21207075 -14.06538563 11.5757613 -17.421875 11.85546875 C-18.40671875 11.93925781 -19.3915625 12.02304688 -20.40625 12.109375 C-21.15390625 12.16996094 -21.9015625 12.23054687 -22.671875 12.29296875 C-23.001875 11.63296875 -23.331875 10.97296875 -23.671875 10.29296875 C-26.83630267 11.95019362 -26.83630267 11.95019362 -27.421875 14.66796875 C-29.26276784 18.53384371 -31.92102091 19.31524569 -35.671875 21.29296875 C-36.001875 21.95296875 -36.331875 22.61296875 -36.671875 23.29296875 C-39.146875 22.30296875 -39.146875 22.30296875 -41.671875 21.29296875 C-42.331875 22.61296875 -42.991875 23.93296875 -43.671875 25.29296875 C-45.234375 24.04296875 -45.234375 24.04296875 -46.671875 22.29296875 C-46.16316264 17.78050174 -43.45425829 15.41044628 -40.30078125 12.38671875 C-28.67223172 3.12534795 -14.59256271 -0.22869208 0 0 Z " fill="#6B24F4" transform="translate(210.671875,150.70703125)"/>
<path d="M0 0 C0.99 0.33 1.98 0.66 3 1 C3.50133025 12.51202805 1.97929389 22.56719375 -3 33 C-3.33 32.34 -3.66 31.68 -4 31 C-4.86625 31.3403125 -4.86625 31.3403125 -5.75 31.6875 C-6.4925 31.790625 -7.235 31.89375 -8 32 C-8.5775 31.525625 -9.155 31.05125 -9.75 30.5625 C-13.18869464 28.17451761 -15.86266148 28.73307493 -20 29 C-20.66 29.33 -21.32 29.66 -22 30 C-21.08121145 27.62646292 -20.13338546 25.28262412 -19.046875 22.98046875 C-17.15924988 18.9587003 -15.8856771 15.61579995 -15.375 11.1875 C-14.953125 8.94921875 -14.953125 8.94921875 -14 7 C-9.72264092 4.24701889 -4.89421072 3.18371608 0 2 C0 1.34 0 0.68 0 0 Z M-23 30 C-22.34 30.66 -21.68 31.32 -21 32 C-21.99 31.67 -22.98 31.34 -24 31 C-23.67 30.67 -23.34 30.34 -23 30 Z M-27 33 C-25 34 -25 34 -25 34 Z " fill="#E93A78" transform="translate(298,242)"/>
<path d="M0 0 C2.66694948 -0.05455124 5.33275498 -0.09393392 8 -0.125 C8.74378906 -0.14175781 9.48757812 -0.15851563 10.25390625 -0.17578125 C23.68747199 -0.29259487 36.43968462 5.66731118 46 15 C43.25 19.875 43.25 19.875 41 21 C38.3276379 21.13415472 35.67749512 21.04318541 33 21 C33 20.34 33 19.68 33 19 C32.67 19.66 32.34 20.32 32 21 C31.01 20.67 30.02 20.34 29 20 C29 19.01 29 18.02 29 17 C28.44828125 17.22558594 27.8965625 17.45117188 27.328125 17.68359375 C24.00256654 18.13555723 22.52882792 16.85411274 19.75 15.0625 C18.85796875 14.49660156 17.9659375 13.93070313 17.046875 13.34765625 C16.37140625 12.90292969 15.6959375 12.45820313 15 12 C15.33 11.01 15.66 10.02 16 9 C14.35 8.67 12.7 8.34 11 8 C10.67 9.32 10.34 10.64 10 12 C8 11 8 11 7 8 C5.04783565 6.04783565 3.46800047 5.15173355 1 4 C1.66 3.67 2.32 3.34 3 3 C2.01 2.01 1.02 1.02 0 0 Z " fill="#E93BB2" transform="translate(241,199)"/>
<path d="M0 0 C3.13180809 1.62390049 5.24339744 3.00266026 7.375 5.8125 C8.74302563 10.60058971 8.58540192 13.93012753 6.1875 18.3125 C4.00005964 20.99992673 2.44253231 22.79199441 -1.0859375 23.30078125 C-5.88349381 23.32534212 -9.13173165 23.16494683 -13 20 C-15.82792793 15.7581081 -15.78122286 11.98126257 -15 7 C-11.58766504 0.65736995 -6.9300607 -0.94032422 0 0 Z " fill="#E938B9" transform="translate(307,185)"/>
<path d="M0 0 C0.33 0 0.66 0 1 0 C1.14876435 4.46560056 1.25740399 8.92987491 1.32958984 13.3972168 C1.35969086 14.91537611 1.40058346 16.43336251 1.45263672 17.95092773 C1.52576394 20.13829199 1.55951745 22.3233517 1.5859375 24.51171875 C1.63306885 26.48338013 1.63306885 26.48338013 1.68115234 28.49487305 C0.74324613 33.32122413 -1.07021854 34.19867523 -5 37 C-5.33 37.66 -5.66 38.32 -6 39 C-8.90050829 40.88141079 -11.88656995 42.50094109 -15 44 C-16.3308911 41.33821779 -16.11268993 39.31260604 -16.09765625 36.3359375 C-16.09443359 35.21445312 -16.09121094 34.09296875 -16.08789062 32.9375 C-16.07951172 31.761875 -16.07113281 30.58625 -16.0625 29.375 C-16.05798828 28.19164062 -16.05347656 27.00828125 -16.04882812 25.7890625 C-16.03701467 22.85932493 -16.02054258 19.92968728 -16 17 C-14.56151406 16.51598648 -13.12263614 16.03313783 -11.68359375 15.55078125 C-10.88236084 15.28177002 -10.08112793 15.01275879 -9.25561523 14.7355957 C-7.53831077 14.17555259 -5.80344889 13.66903906 -4.0625 13.1875 C-1.66403731 12.0838406 -1.66403731 12.0838406 -0.6875 8.875 C-0.460625 7.92625 -0.23375 6.9775 0 6 C-0.66 5.67 -1.32 5.34 -2 5 C-1.34 5 -0.68 5 0 5 C0 3.35 0 1.7 0 0 Z " fill="#E9692F" transform="translate(167,258)"/>
<path d="M0 0 C3.37064536 3.00333144 5.04765088 5.77094798 6.75 9.9375 C7.17796875 10.95714844 7.6059375 11.97679687 8.046875 13.02734375 C8.96708999 15.89735853 9.19792909 18.01456956 9 21 C8.34 21 7.68 21 7 21 C7 21.66 7 22.32 7 23 C5.23244474 23.84026396 3.46082737 24.67198722 1.6875 25.5 C0.70136719 25.9640625 -0.28476562 26.428125 -1.30078125 26.90625 C-4 28 -4 28 -7 28 C-7.33 29.32 -7.66 30.64 -8 32 C-8.02578125 31.31035156 -8.0515625 30.62070313 -8.078125 29.91015625 C-8.66519364 20.1834963 -12.08666482 13.24738405 -17 5 C-16.19175781 4.80664062 -15.38351562 4.61328125 -14.55078125 4.4140625 C-13.48214844 4.15367187 -12.41351563 3.89328125 -11.3125 3.625 C-10.25675781 3.36976563 -9.20101563 3.11453125 -8.11328125 2.8515625 C-5.29593234 2.08094511 -2.68331675 1.14501457 0 0 Z " fill="#E93798" transform="translate(291,221)"/>
<path d="M0 0 C0.33 0.99 0.66 1.98 1 3 C3.45779976 3.22126178 5.91527648 3.42750395 8.375 3.625 C9.07367188 3.68945312 9.77234375 3.75390625 10.4921875 3.8203125 C12.32369111 3.96119739 14.16312748 3.98761659 16 4 C16.66 3.34 17.32 2.68 18 2 C17.88618103 4.93832645 17.75943449 7.8751065 17.625 10.8125 C17.57859375 12.06256836 17.57859375 12.06256836 17.53125 13.33789062 C17.49257812 14.14033203 17.45390625 14.94277344 17.4140625 15.76953125 C17.3826416 16.50792236 17.3512207 17.24631348 17.31884766 18.00708008 C17 20 17 20 15 23 C14.01 23 13.02 23 12 23 C12 23.66 12 24.32 12 25 C10.741875 25.185625 9.48375 25.37125 8.1875 25.5625 C7.47980469 25.66691406 6.77210938 25.77132812 6.04296875 25.87890625 C4 26 4 26 1 25 C0.67 25.66 0.34 26.32 0 27 C0 18.09 0 9.18 0 0 Z " fill="#D13EE3" transform="translate(151,200)"/>
<path d="M0 0 C-1.07899584 2.73898944 -2.17752254 5.33374238 -3.5625 7.9375 C-6.04029123 13.5438155 -5.75750981 19.97119224 -6 26 C-6.763125 25.649375 -7.52625 25.29875 -8.3125 24.9375 C-11.04759379 23.67639116 -11.04759379 23.67639116 -14 25 C-14.99 24.34 -15.98 23.68 -17 23 C-16.67 22.01 -16.34 21.02 -16 20 C-16.99 20 -17.98 20 -19 20 C-18.34 20.66 -17.68 21.32 -17 22 C-20.01031744 22.93423645 -20.86650268 23.04449911 -24 22 C-24.23894545 17.44233678 -24.42747849 13.30915288 -23 8.9375 C-19.97649692 6.00848139 -17.14584573 6.39484245 -13 6 C-10.7226499 3.18490007 -10.7226499 3.18490007 -11 0 C-7.01803543 -1.05404945 -4.01804691 -0.84098656 0 0 Z " fill="#EA476D" transform="translate(223,229)"/>
<path d="M0 0 C0.33 0.99 0.66 1.98 1 3 C0.484375 3.391875 -0.03125 3.78375 -0.5625 4.1875 C-1.036875 4.785625 -1.51125 5.38375 -2 6 C-1.76956136 8.65466049 -1.76956136 8.65466049 -1 11 C0.32 11.33 1.64 11.66 3 12 C3.60415351 16.1485208 3.86640506 19.87801228 3 24 C-1.14380582 28.23852138 -6.24027338 30.05561239 -12 31 C-14.56656953 28.01946765 -16.29515214 25.87666323 -17 22 C-17.37125 20.96875 -17.7425 19.9375 -18.125 18.875 C-19 16 -19 16 -18 14 C-16.48168042 13.22338826 -14.93448924 12.50272711 -13.375 11.8125 C-7.8752079 9.16123724 -2.79636681 5.59273361 0 0 Z " fill="#EA6044" transform="translate(325,314)"/>
<path d="M0 0 C4.27117125 4.42371308 7.045351 9.9241498 8 16 C6.77531076 18.75416539 5.28636968 19.92148211 3 22 C3 22.99 3 23.98 3 25 C2.21625 25.28875 1.4325 25.5775 0.625 25.875 C-2.09671632 26.84912254 -2.09671632 26.84912254 -4 29 C-4.99 29 -5.98 29 -7 29 C-7.33 29.99 -7.66 30.98 -8 32 C-8.10957031 31.23816406 -8.21914063 30.47632813 -8.33203125 29.69140625 C-9.33448622 23.16322389 -10.72636513 17.20082237 -13 11 C-12.54109375 10.61328125 -12.0821875 10.2265625 -11.609375 9.828125 C-8.88377001 7.51479639 -6.21688308 5.21688308 -3.6875 2.6875 C-2 1 -2 1 0 0 Z " fill="#E437AA" transform="translate(339,175)"/>
<path d="M0 0 C0.80050781 0.58007812 0.80050781 0.58007812 1.6171875 1.171875 C7.15693345 5.04394656 12.63693125 7.74170838 19 10 C15.59949622 14.78589421 15.59949622 14.78589421 12.375 15.9375 C9.65226238 16.83088135 9.65226238 16.83088135 8.6875 20.125 C8.460625 21.07375 8.23375 22.0225 8 23 C4.69424754 24.08385327 3.37998035 24.17869062 0.17578125 22.671875 C-0.76910156 22.03765625 -1.71398437 21.4034375 -2.6875 20.75 C-3.64011719 20.12609375 -4.59273437 19.5021875 -5.57421875 18.859375 C-8 17 -8 17 -10 14 C-8.68 11.69 -7.36 9.38 -6 7 C-5.34 7 -4.68 7 -4 7 C-3.71125 6.401875 -3.4225 5.80375 -3.125 5.1875 C-2 3 -2 3 0 0 Z " fill="#F3BE47" transform="translate(179,320)"/>
<path d="M0 0 C6.02280504 0.36501849 9.59676338 4.49436984 13.55859375 8.625 C17 12.52461048 17 12.52461048 17 16 C16.443125 16.226875 15.88625 16.45375 15.3125 16.6875 C11.69426777 18.74109126 9.12707223 21.78944094 6.3125 24.8125 C5 26 5 26 3 26 C1.77373372 24.30974108 0.55268158 22.61508732 -0.625 20.890625 C-2.5132623 18.29426434 -4.66728685 16.19941525 -7 14 C-6.25 11.5625 -6.25 11.5625 -5 9 C-2.875 8.1875 -2.875 8.1875 -1 8 C-1.66 6.35 -2.32 4.7 -3 3 C-2.34 3 -1.68 3 -1 3 C-0.67 2.01 -0.34 1.02 0 0 Z " fill="#DB37C2" transform="translate(322,160)"/>
<path d="M0 0 C8.58 0 17.16 0 26 0 C26.66 1.65 27.32 3.3 28 5 C28.33 5.33 28.66 5.66 29 6 C30.48858418 9.85280611 31.1047657 12.89318469 31 17 C19.49799835 17.54387749 19.49799835 17.54387749 15 14 C14.278125 13.690625 13.55625 13.38125 12.8125 13.0625 C10.54355137 11.73242666 9.96125316 10.40313289 9 8 C9.33 7.67 9.66 7.34 10 7 C8.906875 6.5875 7.81375 6.175 6.6875 5.75 C2.99935198 4.35824603 2.66012199 3.54682933 0 0 Z " fill="#F2B342" transform="translate(255,332)"/>
<path d="M0 0 C0.33 0 0.66 0 1 0 C1.14533755 3.582906 1.23407931 7.16505417 1.3125 10.75 C1.35439453 11.76578125 1.39628906 12.7815625 1.43945312 13.828125 C1.56390832 21.39500069 1.56390832 21.39500069 -1.51953125 24.703125 C-2.33808594 25.13109375 -3.15664063 25.5590625 -4 26 C-3.34 26.33 -2.68 26.66 -2 27 C-2.66 27 -3.32 27 -4 27 C-4 30.3 -4 33.6 -4 37 C-5.32 36.67 -6.64 36.34 -8 36 C-8 35.34 -8 34.68 -8 34 C-7.34 34 -6.68 34 -6 34 C-6 33.01 -6 32.02 -6 31 C-6.99 31.33 -7.98 31.66 -9 32 C-9 31.01 -9 30.02 -9 29 C-9.268125 30.134375 -9.53625 31.26875 -9.8125 32.4375 C-10.204375 33.613125 -10.59625 34.78875 -11 36 C-12.485 36.495 -12.485 36.495 -14 37 C-14 36.34 -14 35.68 -14 35 C-14.99 34.67 -15.98 34.34 -17 34 C-17 30.04 -17 26.08 -17 22 C-16.34 22.33 -15.68 22.66 -15 23 C-15 21.35 -15 19.7 -15 18 C-14.34 18 -13.68 18 -13 18 C-13 17.01 -13 16.02 -13 15 C-11 16 -11 16 -10 18 C-9.01 17.67 -8.02 17.34 -7 17 C-7.33 15.35 -7.66 13.7 -8 12 C-7.34 11.67 -6.68 11.34 -6 11 C-5.27840576 9.35636866 -4.60648579 7.68949614 -4 6 C-3.34 6.33 -2.68 6.66 -2 7 C-1.855625 6.21625 -1.71125 5.4325 -1.5625 4.625 C-1 2 -1 2 0 0 Z " fill="#E53774" transform="translate(348,271)"/>
<path d="M0 0 C1.65 0.99 3.3 1.98 5 3 C5.4125 2.505 5.825 2.01 6.25 1.5 C8 0 8 0 12 0 C14.33634657 0.31151288 16.67038557 0.64159778 19 1 C18.05382426 3.98316838 17.0910512 6.96071431 16.125 9.9375 C15.85558594 10.78763672 15.58617187 11.63777344 15.30859375 12.51367188 C15.04433594 13.32255859 14.78007812 14.13144531 14.5078125 14.96484375 C14.26691895 15.7137085 14.02602539 16.46257324 13.77783203 17.23413086 C13 19 13 19 11 20 C8.61745728 19.75146137 6.24236637 19.42836571 3.875 19.0625 C2.59367188 18.86785156 1.31234375 18.67320312 -0.0078125 18.47265625 C-0.99523437 18.31667969 -1.98265625 18.16070312 -3 18 C-3.31985731 11.28299653 -2.4793824 6.24273068 0 0 Z " fill="#9534F5" transform="translate(155,185)"/>
<path d="M0 0 C6.98591549 -0.67605634 6.98591549 -0.67605634 10.25 1.5 C10.8275 1.995 11.405 2.49 12 3 C13.32 3 14.64 3 16 3 C15.45819263 7.12945075 14.20641582 9.50416914 11.625 12.75 C11.01914062 13.52859375 10.41328125 14.3071875 9.7890625 15.109375 C8 17 8 17 5 18 C2.6171875 17.546875 2.6171875 17.546875 -0.125 16.75 C-1.09308594 16.47027344 -2.06117188 16.19054687 -3.05859375 15.90234375 C-7.06457019 14.67341871 -11.04277542 13.37770041 -15 12 C-11.85714535 8.31056194 -8.27756722 6.40142526 -4.0234375 4.24609375 C-1.70801264 3.01443205 -1.70801264 3.01443205 0 0 Z " fill="#E9485E" transform="translate(278,270)"/>
<path d="M0 0 C0.33 0 0.66 0 1 0 C1.33 3.3 1.66 6.6 2 10 C5.63 10 9.26 10 13 10 C13 9.34 13 8.68 13 8 C13.99 7.67 14.98 7.34 16 7 C16.66 6.34 17.32 5.68 18 5 C18 10.28 18 15.56 18 21 C9.9490835 24.27494908 9.9490835 24.27494908 5 24 C3.68 24.33 2.36 24.66 1 25 C1 39.19 1 53.38 1 68 C0.67 68 0.34 68 0 68 C0 45.56 0 23.12 0 0 Z " fill="#EB60A5" transform="translate(150,215)"/>
<path d="M0 0 C1.58367747 0.14204741 3.16693318 0.28880153 4.75 0.4375 C6.07257813 0.55931641 6.07257813 0.55931641 7.421875 0.68359375 C9.69350452 0.96238465 11.79851823 1.38790577 14 2 C13.34 3.65 12.68 5.3 12 7 C11.34 6.34 10.68 5.68 10 5 C9.34 6.65 8.68 8.3 8 10 C4.89448334 10 3.64738916 9.4606285 1 8 C0.67 8.66 0.34 9.32 0 10 C-5.38297199 12.45237904 -11.22745256 13.53222611 -17.03125 14.47265625 C-17.6809375 14.64667969 -18.330625 14.82070312 -19 15 C-19.33 15.66 -19.66 16.32 -20 17 C-27.26 17 -34.52 17 -42 17 C-38.90272912 13.90272912 -38.18360308 13.5341665 -34.125 12.8125 C-33.28195312 12.65394531 -32.43890625 12.49539062 -31.5703125 12.33203125 C-29.01498548 12.00193581 -26.57335099 11.94004738 -24 12 C-24 11.34 -24 10.68 -24 10 C-22.89591797 10.07927734 -22.89591797 10.07927734 -21.76953125 10.16015625 C-18.59605003 9.97664041 -17.29646952 9.18794207 -14.6875 7.4375 C-9.95827525 4.61266105 -7.28846333 4.74999958 -2 6 C-2.495 4.515 -2.495 4.515 -3 3 C-2.01 2.67 -1.02 2.34 0 2 C0 1.34 0 0.68 0 0 Z " fill="#C02DD8" transform="translate(295,151)"/>
<path d="M0 0 C3 1 3 1 5 3 C7.16703054 3.8460916 9.3591243 4.62865699 11.5625 5.375 C17.18748379 7.31352507 22.60558759 9.48880802 28 12 C28 12.33 28 12.66 28 13 C14.43341306 16.16039809 1.223885 13.80456749 -10.75 6.875 C-14.83372365 4.33255269 -14.83372365 4.33255269 -16 2 C-14.39592672 1.97291433 -12.7917215 1.95356517 -11.1875 1.9375 C-10.29417969 1.92589844 -9.40085938 1.91429687 -8.48046875 1.90234375 C-6 2 -6 2 -3 3 C-2.01 2.01 -1.02 1.02 0 0 Z " fill="#ED8443" transform="translate(234,287)"/>
<path d="M0 0 C2.0625 0.4375 2.0625 0.4375 4 1 C4 1.99 4 2.98 4 4 C4.66 4.33 5.32 4.66 6 5 C6.99 4.67 7.98 4.34 9 4 C9 4.66 9 5.32 9 6 C9.62003906 6.06058594 10.24007812 6.12117187 10.87890625 6.18359375 C13 7 13 7 14.08984375 9.22265625 C14.36957031 10.15980469 14.64929688 11.09695313 14.9375 12.0625 C16.6432412 17.26806877 18.87044631 21.52371214 22 26 C19.69 25.34 17.38 24.68 15 24 C15 23.01 15 22.02 15 21 C14.30132812 20.89042969 13.60265625 20.78085937 12.8828125 20.66796875 C11.51769531 20.43013672 11.51769531 20.43013672 10.125 20.1875 C9.22007812 20.03667969 8.31515625 19.88585937 7.3828125 19.73046875 C5 19 5 19 3 16 C-0.55672179 14.7811879 -0.55672179 14.7811879 -4 14 C-5.17571451 10.32589215 -5.07366746 6.83070817 -5 3 C-3.02 3 -1.04 3 1 3 C0.34 2.34 -0.32 1.68 -1 1 C-0.67 0.67 -0.34 0.34 0 0 Z " fill="#EB5955" transform="translate(204,248)"/>
<path d="M0 0 C-3.08809695 1.76462683 -4.23312136 2 -8 2 C-8.33 2.99 -8.66 3.98 -9 5 C-10.4540625 5.1546875 -10.4540625 5.1546875 -11.9375 5.3125 C-15.7789412 5.85014593 -19.26589379 7.02535473 -22.91796875 8.30078125 C-25.93181234 9.3129351 -28.8186356 10 -32 10 C-32 11.65 -32 13.3 -32 15 C-35.46532608 16.54677828 -38.29534327 17.27467521 -42.08203125 17.4140625 C-43.01337891 17.45273438 -43.94472656 17.49140625 -44.90429688 17.53125 C-46.34385742 17.57765625 -46.34385742 17.57765625 -47.8125 17.625 C-48.79154297 17.66367188 -49.77058594 17.70234375 -50.77929688 17.7421875 C-53.18601374 17.83610816 -55.59273012 17.92178201 -58 18 C-55.23776722 15.23776722 -52.79293383 15.42143709 -49 15 C-49 14.34 -49 13.68 -49 13 C-45.535 12.505 -45.535 12.505 -42 12 C-42.33 11.34 -42.66 10.68 -43 10 C-43.99 10.33 -44.98 10.66 -46 11 C-45.67 9.35 -45.34 7.7 -45 6 C-43.02 6 -41.04 6 -39 6 C-38.67 4.68 -38.34 3.36 -38 2 C-37.34 2.33 -36.68 2.66 -36 3 C-36.33 3.99 -36.66 4.98 -37 6 C-34.69 6 -32.38 6 -30 6 C-30 5.34 -30 4.68 -30 4 C-29.35933594 3.96261719 -28.71867187 3.92523438 -28.05859375 3.88671875 C-23.82987978 3.56531128 -20.5624094 3.26528745 -16.6875 1.4375 C-11.19161067 -0.70496533 -5.8306855 -0.2367346 0 0 Z " fill="#851FDC" transform="translate(260,151)"/>
<path d="M0 0 C0.24867947 2.60364409 0.47457902 5.20589894 0.6875 7.8125 C0.76033203 8.55048828 0.83316406 9.28847656 0.90820312 10.04882812 C1.32723596 15.49625495 1.32723596 15.49625495 -0.2890625 17.984375 C-2 19 -2 19 -5.0625 19.4375 C-6.031875 19.623125 -7.00125 19.80875 -8 20 C-9.25827123 21.84982472 -9.25827123 21.84982472 -10 24 C-11.625 25.75 -11.625 25.75 -13 27 C-15.43123244 21.9261236 -17.09166196 17.68304158 -17 12 C-15.22899142 9.56412773 -13.64592226 8.62825985 -11 7 C-10.01 7 -9.02 7 -8 7 C-7.7525 6.401875 -7.505 5.80375 -7.25 5.1875 C-5.55294333 2.21765083 -3.56508774 0 0 0 Z " fill="#ED7D36" transform="translate(169,290)"/>
<path d="M0 0 C1.65 0 3.3 0 5 0 C4.34 0.66 3.68 1.32 3 2 C4.32 2.33 5.64 2.66 7 3 C7 2.01 7 1.02 7 0 C8.65 0 10.3 0 12 0 C11.67 1.65 11.34 3.3 11 5 C12.32 4.67 13.64 4.34 15 4 C15 4.66 15 5.32 15 6 C15.66 6 16.32 6 17 6 C17.33 5.34 17.66 4.68 18 4 C18.495 5.485 18.495 5.485 19 7 C16.69 7.33 14.38 7.66 12 8 C12 8.66 12 9.32 12 10 C4.57142857 12.14285714 4.57142857 12.14285714 1 13 C1.33 12.01 1.66 11.02 2 10 C-4.54231645 11.87683149 -4.54231645 11.87683149 -10.9375 14.1875 C-14.19886078 15.47227849 -16.73135467 14.90169526 -20 14 C-19.67 13.34 -19.34 12.68 -19 12 C-18.34 12 -17.68 12 -17 12 C-15.99782936 8.41672247 -15.99782936 8.41672247 -17 5 C-13.535 4.505 -13.535 4.505 -10 4 C-10.33 4.99 -10.66 5.98 -11 7 C-10.154375 6.67 -9.30875 6.34 -8.4375 6 C-4.79010784 4.93894046 -1.77725336 4.84890987 2 5 C1.34 4.34 0.68 3.68 0 3 C0 2.01 0 1.02 0 0 Z " fill="#7827F1" transform="translate(199,156)"/>
<path d="M0 0 C4.06153846 6.4 4.06153846 6.4 3.75 9.4375 C3.5025 9.953125 3.255 10.46875 3 11 C3.99 11.33 4.98 11.66 6 12 C6.33 13.65 6.66 15.3 7 17 C4.23547967 18.38226016 1.9538637 18.09525387 -1.125 18.0625 C-2.22070312 18.05347656 -3.31640625 18.04445313 -4.4453125 18.03515625 C-5.70988281 18.01775391 -5.70988281 18.01775391 -7 18 C-7.66 14.7 -8.32 11.4 -9 8 C-9.99 7.67 -10.98 7.34 -12 7 C-11.67 6.34 -11.34 5.68 -11 5 C-11.39938767 2.90178785 -11.39938767 2.90178785 -12 1 C-7.93631321 0.22596442 -4.13574827 -0.0984702 0 0 Z " fill="#EE8F3C" transform="translate(293,331)"/>
<path d="M0 0 C3.375 0.3125 3.375 0.3125 7 1 C7.66 1.99 8.32 2.98 9 4 C10.91595089 5.1433257 10.91595089 5.1433257 13.0625 6.0625 C16.89381564 7.78763127 16.89381564 7.78763127 18 10 C15.525 9.505 15.525 9.505 13 9 C16.23507998 13.4114727 19.84557192 13.84694558 24.953125 14.703125 C25.62859375 14.80109375 26.3040625 14.8990625 27 15 C27 15.99 27 16.98 27 18 C24.24627511 18.9179083 22.58933489 19.13492774 19.75 19.125 C18.65945312 19.12886719 18.65945312 19.12886719 17.546875 19.1328125 C16.70640625 19.08898437 15.8659375 19.04515625 15 19 C13.83855469 18.99613281 12.67710937 18.99226563 11.48046875 18.98828125 C7.67598219 17.90799494 7.39735568 17.69251956 5.56640625 14.47265625 C4.87142458 13.0151804 4.20411881 11.54424245 3.5625 10.0625 C3.21251953 9.32064453 2.86253906 8.57878906 2.50195312 7.81445312 C0 2.41395548 0 2.41395548 0 0 Z " fill="#EB6740" transform="translate(200,262)"/>
<path d="M0 0 C13.86 0 27.72 0 42 0 C38 2 38 2 36 2 C35.67 2.66 35.34 3.32 35 4 C31.7 4 28.4 4 25 4 C25 4.66 25 5.32 25 6 C21.89953913 7.03348696 20.94389782 7.17755913 18 6 C17.67 5.01 17.34 4.02 17 3 C16.67 4.32 16.34 5.64 16 7 C14.8553125 6.9071875 14.8553125 6.9071875 13.6875 6.8125 C10.49347163 7.03533919 10.0779007 7.73319924 8 10 C7.01 10 6.02 10 5 10 C4.896875 9.360625 4.79375 8.72125 4.6875 8.0625 C4.3471875 7.0415625 4.3471875 7.0415625 4 6 C3.01 5.67 2.02 5.34 1 5 C0.67 3.35 0.34 1.7 0 0 Z " fill="#701EEA" transform="translate(205,151)"/>
<path d="M0 0 C0.66 0.99 1.32 1.98 2 3 C2.66 2.67 3.32 2.34 4 2 C4.33 3.32 4.66 4.64 5 6 C3.35 7.32 1.7 8.64 0 10 C1.44754255 11.44754255 3.03962913 11.55733561 5 12 C5 12.99 5 13.98 5 15 C4.34 15 3.68 15 3 15 C3.309375 16.175625 3.61875 17.35125 3.9375 18.5625 C4.35238894 21.54650894 4.2843805 22.6017184 2.5078125 25.08984375 C0.73658453 26.82906158 -1.06021848 28.45204467 -3 30 C-3.66 29.34 -4.32 28.68 -5 28 C-4.9765625 25.8359375 -4.9765625 25.8359375 -4.625 23.375 C-4.51414062 22.55773437 -4.40328125 21.74046875 -4.2890625 20.8984375 C-4.19367188 20.27195312 -4.09828125 19.64546875 -4 19 C-4.95132812 18.83177734 -4.95132812 18.83177734 -5.921875 18.66015625 C-6.60765625 18.44230469 -7.2934375 18.22445313 -8 18 C-9.25 15.4375 -9.25 15.4375 -10 13 C-9.2884375 12.38125 -9.2884375 12.38125 -8.5625 11.75 C-6.83733482 9.817815 -6.43415125 8.51807725 -6 6 C-5.38125 5.938125 -4.7625 5.87625 -4.125 5.8125 C-1.72238859 5.171081 -1.72238859 5.171081 -0.75 2.4375 C-0.37875 1.2309375 -0.37875 1.2309375 0 0 Z " fill="#E94B67" transform="translate(332,307)"/>
<path d="M0 0 C0.33 0 0.66 0 1 0 C1 2.97 1 5.94 1 9 C-0.65 9.66 -2.3 10.32 -4 11 C-3.34 9.68 -2.68 8.36 -2 7 C-3.98 7.99 -3.98 7.99 -6 9 C-5.67 9.66 -5.34 10.32 -5 11 C-3.02 11 -1.04 11 1 11 C0 14 0 14 -2 16 C-2.598125 16.639375 -3.19625 17.27875 -3.8125 17.9375 C-7.17599217 21.10879262 -10.87890939 22.9394547 -15 25 C-15 19.39 -15 13.78 -15 8 C-13.618125 7.54625 -12.23625 7.0925 -10.8125 6.625 C-9.20801533 6.08427603 -7.60382795 5.54266875 -6 5 C-5.01 4.67 -4.02 4.34 -3 4 C-2.34 3.67 -1.68 3.34 -1 3 C-0.67 2.01 -0.34 1.02 0 0 Z " fill="#E75B33" transform="translate(166,267)"/>
<path d="M0 0 C0 7.26 0 14.52 0 22 C-0.33 22 -0.66 22 -1 22 C-1 18.7 -1 15.4 -1 12 C-1.86625 12.350625 -2.7325 12.70125 -3.625 13.0625 C-7.24825242 14.068959 -9.3853322 13.86063519 -13 13 C-13.99 14.485 -13.99 14.485 -15 16 C-15.66 16 -16.32 16 -17 16 C-17 12.04 -17 8.08 -17 4 C-16.01 4 -15.02 4 -14 4 C-13.67 3.34 -13.34 2.68 -13 2 C-11.00727182 1.70599092 -9.01204527 1.41989164 -7.0078125 1.21875 C-4.65873604 0.96281949 -2.33450226 0 0 0 Z " fill="#EA4A86" transform="translate(168,236)"/>
<path d="M0 0 C0.66 0 1.32 0 2 0 C2.48357546 3.77457512 2.67397299 7.24130446 2 11 C-0.24488601 13.75305672 -2.92165966 15.28611322 -6 17 C-7.11023967 17.74098036 -8.21523906 18.4899326 -9.3125 19.25 C-10.199375 19.8275 -11.08625 20.405 -12 21 C-12.99 21.66 -13.98 22.32 -15 23 C-15 19.37 -15 15.74 -15 12 C-14.34 11.67 -13.68 11.34 -13 11 C-13 10.01 -13 9.02 -13 8 C-9.66666667 5 -9.66666667 5 -7 5 C-6.67 5.66 -6.34 6.32 -6 7 C-5.59007812 6.4946875 -5.18015625 5.989375 -4.7578125 5.46875 C-4.21898437 4.8190625 -3.68015625 4.169375 -3.125 3.5 C-2.59132813 2.8503125 -2.05765625 2.200625 -1.5078125 1.53125 C-1.01023437 1.0259375 -0.51265625 0.520625 0 0 Z " fill="#E93673" transform="translate(347,216)"/>
<path d="M0 0 C0 0.66 0 1.32 0 2 C2.97 1.34 5.94 0.68 9 0 C9.29974969 7.79349186 9.29974969 7.79349186 7 11 C4.25 12.265625 4.25 12.265625 1 13.25 C-0.0725 13.58515625 -1.145 13.9203125 -2.25 14.265625 C-5 15 -5 15 -7 15 C-7 10.71 -7 6.42 -7 2 C-3 0 -3 0 0 0 Z " fill="#EA4F43" transform="translate(158,260)"/>
<path d="M0 0 C0.721875 0.12375 1.44375 0.2475 2.1875 0.375 C2.5175 1.035 2.8475 1.695 3.1875 2.375 C6.4875 2.045 9.7875 1.715 13.1875 1.375 C12.59645235 6.22159077 11.20805843 9.98248167 9.1875 14.375 C8.8575 13.715 8.5275 13.055 8.1875 12.375 C7.32125 12.7153125 7.32125 12.7153125 6.4375 13.0625 C5.695 13.165625 4.9525 13.26875 4.1875 13.375 C3.61 12.900625 3.0325 12.42625 2.4375 11.9375 C-1.00119464 9.54951761 -3.67516148 10.10807493 -7.8125 10.375 C-8.8025 10.87 -8.8025 10.87 -9.8125 11.375 C-8.2057605 6.40871427 -5.60411179 0.74721491 0 0 Z M-10.8125 11.375 C-10.1525 12.035 -9.4925 12.695 -8.8125 13.375 C-9.8025 13.045 -10.7925 12.715 -11.8125 12.375 C-11.4825 12.045 -11.1525 11.715 -10.8125 11.375 Z M-14.8125 14.375 C-12.8125 15.375 -12.8125 15.375 -12.8125 15.375 Z " fill="#E9426A" transform="translate(285.8125,260.625)"/>
<path d="M0 0 C1.258125 -0.04125 2.51625 -0.0825 3.8125 -0.125 C4.52019531 -0.14820313 5.22789062 -0.17140625 5.95703125 -0.1953125 C8 0 8 0 11 2 C11 2.66 11 3.32 11 4 C14.04913228 5.01111093 14.04913228 5.01111093 17 4 C17.99 4.99 18.98 5.98 20 7 C19.67 7.66 19.34 8.32 19 9 C19.33 9.99 19.66 10.98 20 12 C20.66 11.67 21.32 11.34 22 11 C22.99 12.32 23.98 13.64 25 15 C25.66 14.67 26.32 14.34 27 14 C27.33 14.99 27.66 15.98 28 17 C23.96110698 17.28577073 20.03037642 17.44662382 16 17 C13.4375 14.625 13.4375 14.625 12 12 C11.01 11.34 10.02 10.68 9 10 C9 9.34 9 8.68 9 8 C8.05125 7.690625 7.1025 7.38125 6.125 7.0625 C3 6 3 6 1 5 C0.375 2.4375 0.375 2.4375 0 0 Z " fill="#F4C449" transform="translate(247,332)"/>
<path d="M0 0 C2.42920859 3.64381288 2.24285565 5.33612445 2.22705078 9.67456055 C2.22734283 10.347995 2.22763489 11.02142944 2.22793579 11.715271 C2.22654344 13.93921839 2.21098703 16.16282995 2.1953125 18.38671875 C2.19158203 19.92942624 2.18873522 21.4721361 2.18673706 23.0148468 C2.17910329 27.07388864 2.15945706 31.1327872 2.1373291 35.19177246 C2.11686512 39.3342088 2.10773416 43.4766683 2.09765625 47.61914062 C2.07621088 55.74615948 2.04207808 63.87306191 2 72 C1.67 72 1.34 72 1 72 C1 50.22 1 28.44 1 6 C-0.51045259 7.51045259 -2.00830865 9.03351637 -3.5 10.5625 C-6 13 -6 13 -8 14 C-8 13.01 -8 12.02 -8 11 C-8.66 11 -9.32 11 -10 11 C-10.33 11.66 -10.66 12.32 -11 13 C-11.99 13.66 -12.98 14.32 -14 15 C-13.34 15.66 -12.68 16.32 -12 17 C-13.32 17.33 -14.64 17.66 -16 18 C-16 15.03 -16 12.06 -16 9 C-14.68 8.67 -13.36 8.34 -12 8 C-10.07196447 6.88735715 -8.17760715 5.7151833 -6.3125 4.5 C-5.33925781 3.8709375 -4.36601562 3.241875 -3.36328125 2.59375 C-1.14051259 1.20414445 -1.14051259 1.20414445 0 0 Z " fill="#EC538B" transform="translate(348,210)"/>
<path d="M0 0 C1.11375 0.37125 2.2275 0.7425 3.375 1.125 C4.24125 1.41375 5.1075 1.7025 6 2 C4.49860488 6.20390632 1.82724957 7.89110738 -2 10 C-5 9 -5 9 -7.25 7.5 C-10.51222663 5.72060366 -13.32741425 5.36005743 -17 5 C-13.25 3 -13.25 3 -11 3 C-11.33 2.34 -11.66 1.68 -12 1 C-12.99 1.33 -13.98 1.66 -15 2 C-17.36522558 1.07796291 -19.70401807 0.08301035 -22 -1 C-14.87804844 -5.74796771 -7.57335544 -2.75394743 0 0 Z " fill="#EB5F50" transform="translate(277,285)"/>
<path d="M0 0 C2.64 0 5.28 0 8 0 C8.625 1.875 8.625 1.875 9 4 C7 6 7 6 4 6.0625 C3.01 6.041875 2.02 6.02125 1 6 C0.01 6.495 0.01 6.495 -1 7 C-2.32 7 -3.64 7 -5 7 C-5 7.99 -5 8.98 -5 10 C-5 10.99 -5 11.98 -5 13 C-8.3 13.33 -11.6 13.66 -15 14 C-15 14.66 -15 15.32 -15 16 C-15.66 16 -16.32 16 -17 16 C-16.45456179 11.41831908 -15.69647458 7.79191738 -13 4 C-9.38419532 2.10633379 -5.79989614 0.65848125 -1.71484375 1.43359375 C-0.86599609 1.71396484 -0.86599609 1.71396484 0 2 C0 1.34 0 0.68 0 0 Z " fill="#E93F8B" transform="translate(217,223)"/>
<path d="M0 0 C7.86705289 -0.02319672 15.73409773 -0.04095244 23.60117626 -0.05181217 C27.25439349 -0.05702497 30.90758728 -0.06409347 34.56079102 -0.07543945 C38.08803347 -0.08632536 41.61525341 -0.09228892 45.14251137 -0.09487724 C47.13938261 -0.09761703 49.13624483 -0.10542001 51.13310242 -0.11329651 C52.35399063 -0.11337204 53.57487885 -0.11344757 54.83276367 -0.11352539 C55.90531906 -0.115746 56.97787445 -0.11796661 58.08293152 -0.12025452 C60.83345618 -0.00686568 63.3236979 0.37614944 66 1 C65.34 1.33 64.68 1.66 64 2 C64 2.66 64 3.32 64 4 C62.9275 4.144375 61.855 4.28875 60.75 4.4375 C58.08337051 4.83749442 55.58600271 5.27591924 53 6 C52.505 5.01 52.505 5.01 52 4 C49.9837767 4.71563266 49.9837767 4.71563266 48 6 C47.67 7.32 47.34 8.64 47 10 C43.7 9.67 40.4 9.34 37 9 C37.33 8.34 37.66 7.68 38 7 C40.0625 6.375 40.0625 6.375 42 6 C41.34 5.34 40.68 4.68 40 4 C42.64 3.34 45.28 2.68 48 2 C32.16 1.67 16.32 1.34 0 1 C0 0.67 0 0.34 0 0 Z " fill="#A537DF" transform="translate(222,150)"/>
<path d="M0 0 C3.125 -0.1875 3.125 -0.1875 6 0 C6.33 2.64 6.66 5.28 7 8 C6.34 8 5.68 8 5 8 C5 8.66 5 9.32 5 10 C3.23244474 10.84026396 1.46082737 11.67198722 -0.3125 12.5 C-1.29863281 12.9640625 -2.28476562 13.428125 -3.30078125 13.90625 C-6 15 -6 15 -9 15 C-9.33 16.32 -9.66 17.64 -10 19 C-10 15.04 -10 11.08 -10 7 C-7.98177083 6.05598958 -5.96354167 5.11197917 -3.9453125 4.16796875 C-1.69457194 3.00532903 -1.69457194 3.00532903 0 0 Z " fill="#E93989" transform="translate(293,234)"/>
<path d="M0 0 C-3 2 -3 2 -5.625 3 C-8.15139938 3.76047262 -8.15139938 3.76047262 -9 6 C-12.0625 6.625 -12.0625 6.625 -15 7 C-15 6.01 -15 5.02 -15 4 C-15.66 4 -16.32 4 -17 4 C-17 4.66 -17 5.32 -17 6 C-18.27875 6.309375 -19.5575 6.61875 -20.875 6.9375 C-23.10101675 7.47605244 -24.94739999 7.9737 -27 9 C-28.66655775 9.33387744 -30.33324062 9.66713054 -32 10 C-34.61014588 10.79047896 -37.2007514 11.62933104 -39.79296875 12.4765625 C-42 13 -42 13 -44 12 C-44 10.68 -44 9.36 -44 8 C-43.01 8.33 -42.02 8.66 -41 9 C-38.64903024 8.0421975 -36.31648799 7.03842565 -34 6 C-31.07208181 5.26802045 -28.25470154 4.91304851 -25.25 4.5625 C-23.64125 4.2840625 -23.64125 4.2840625 -22 4 C-21.67 3.34 -21.34 2.68 -21 2 C-14.04745109 -0.40665154 -7.29404607 -0.20014151 0 0 Z " fill="#9625DA" transform="translate(273,151)"/>
<path d="M0 0 C0.33 0 0.66 0 1 0 C1 5.28 1 10.56 1 16 C0.67 16 0.34 16 0 16 C0 14.35 0 12.7 0 11 C-0.78375 11.350625 -1.5675 11.70125 -2.375 12.0625 C-3.24125 12.371875 -4.1075 12.68125 -5 13 C-5.66 12.67 -6.32 12.34 -7 12 C-9.02045442 12.60183749 -11.02111039 13.27306096 -13 14 C-13.99 14.33 -14.98 14.66 -16 15 C-16.125 7.25 -16.125 7.25 -15 5 C-11.37 5 -7.74 5 -4 5 C-4 4.34 -4 3.68 -4 3 C-3.01 2.67 -2.02 2.34 -1 2 C-0.67 1.34 -0.34 0.68 0 0 Z " fill="#E643BB" transform="translate(167,220)"/>
<path d="M0 0 C-0.33 1.32 -0.66 2.64 -1 4 C0.65 4.33 2.3 4.66 4 5 C4.33 4.34 4.66 3.68 5 3 C7.475 3.495 7.475 3.495 10 4 C9.75 6.375 9.75 6.375 9 9 C6.61607561 10.71361459 5.44781171 11.06417459 2.51953125 10.64453125 C1.17955078 10.23267578 1.17955078 10.23267578 -0.1875 9.8125 C-1.1465625 9.52375 -2.105625 9.235 -3.09375 8.9375 C-4.0528125 8.628125 -5.011875 8.31875 -6 8 C-6.8971875 7.71125 -7.794375 7.4225 -8.71875 7.125 C-10.81893396 6.43380022 -12.9119665 5.726945 -15 5 C-9.59943992 -0.58678629 -7.45401978 -1.22197046 0 0 Z " fill="#EA5559" transform="translate(278,277)"/>
<path d="M0 0 C0.66 0.66 1.32 1.32 2 2 C2.99 1.34 3.98 0.68 5 0 C5.37828551 10.49742283 2.18883901 20.91953173 -3 30 C-3.33 30 -3.66 30 -4 30 C-5.66251802 24.42567486 -6.18609365 20.6932495 -5 15 C-3.68 14.67 -2.36 14.34 -1 14 C-0.67 9.38 -0.34 4.76 0 0 Z " fill="#EA488C" transform="translate(344,293)"/>
<path d="M0 0 C0.33 0.99 0.66 1.98 1 3 C3.45779976 3.22126178 5.91527648 3.42750395 8.375 3.625 C9.07367188 3.68945312 9.77234375 3.75390625 10.4921875 3.8203125 C12.32369111 3.96119739 14.16312748 3.98761659 16 4 C16.66 3.34 17.32 2.68 18 2 C17.67 4.97 17.34 7.94 17 11 C15.02 11.33 13.04 11.66 11 12 C10.67 11.01 10.34 10.02 10 9 C9.34 9 8.68 9 8 9 C8 9.66 8 10.32 8 11 C6.02253397 11.73080266 4.01927511 12.39421747 2 13 C1.34 12.67 0.68 12.34 0 12 C0 8.04 0 4.08 0 0 Z " fill="#C03AEC" transform="translate(151,200)"/>
<path d="M0 0 C0.33 0.99 0.66 1.98 1 3 C0.484375 3.391875 -0.03125 3.78375 -0.5625 4.1875 C-1.2740625 5.0846875 -1.2740625 5.0846875 -2 6 C-1.76956136 8.65466049 -1.76956136 8.65466049 -1 11 C0.32 11.33 1.64 11.66 3 12 C3.13504138 13.93559313 3.23201129 15.873872 3.3125 17.8125 C3.39951172 19.43091797 3.39951172 19.43091797 3.48828125 21.08203125 C3 24 3 24 0.48046875 25.88671875 C-0.33808594 26.25410156 -1.15664063 26.62148438 -2 27 C-2.99 23.7 -3.98 20.4 -5 17 C-4.34 17 -3.68 17 -3 17 C-3 16.34 -3 15.68 -3 15 C-3.99 15.33 -4.98 15.66 -6 16 C-6.66 13.69 -7.32 11.38 -8 9 C-7.50628906 8.51789063 -7.01257813 8.03578125 -6.50390625 7.5390625 C-5.86324219 6.90742188 -5.22257812 6.27578125 -4.5625 5.625 C-3.92441406 4.99851562 -3.28632813 4.37203125 -2.62890625 3.7265625 C-0.92117824 2.08276939 -0.92117824 2.08276939 0 0 Z " fill="#E95755" transform="translate(325,314)"/>
<path d="M0 0 C1.32 0 2.64 0 4 0 C3.979375 0.928125 3.95875 1.85625 3.9375 2.8125 C3.84230396 6.02286011 3.84230396 6.02286011 5 9 C0.25 13 0.25 13 -2 13 C-2.433125 13.928125 -2.433125 13.928125 -2.875 14.875 C-4 17 -4 17 -6 19 C-9 18 -9 18 -10.5 15.875 C-11.08405324 12.51669385 -10.72306632 12.02791033 -8.875 9.3125 C-6.8187214 6.73797232 -5.1561563 5.11992643 -2 4 C-0.88625 3.443125 -0.88625 3.443125 0.25 2.875 C0.8275 2.58625 1.405 2.2975 2 2 C1.34 1.34 0.68 0.68 0 0 Z " fill="#EE8F3C" transform="translate(167,304)"/>
<path d="M0 0 C4.8 3.32307692 4.8 3.32307692 5.8125 6.75 C5.874375 7.4925 5.93625 8.235 6 9 C5.34 9 4.68 9 4 9 C4 9.66 4 10.32 4 11 C3.01 10.67 2.02 10.34 1 10 C-0.65 12.64 -2.3 15.28 -4 18 C-8 17 -8 17 -10 14 C-8.68 11.69 -7.36 9.38 -6 7 C-5.34 7 -4.68 7 -4 7 C-3.71125 6.401875 -3.4225 5.80375 -3.125 5.1875 C-2 3 -2 3 0 0 Z " fill="#F2B144" transform="translate(179,320)"/>
<path d="M0 0 C2.86724686 0.57344937 3.8614515 0.8614515 6 3 C6 3.99 6 4.98 6 6 C5.443125 6.226875 4.88625 6.45375 4.3125 6.6875 C0.69426777 8.74109126 -1.87292777 11.78944094 -4.6875 14.8125 C-6 16 -6 16 -8 16 C-9.5078125 14.3203125 -9.5078125 14.3203125 -11.125 12.125 C-11.66382813 11.40570313 -12.20265625 10.68640625 -12.7578125 9.9453125 C-14 8 -14 8 -14 6 C-11.07120629 6.62759865 -8.63904371 7.58622659 -6 9 C-5.01 7.02 -4.02 5.04 -3 3 C-2.34 3 -1.68 3 -1 3 C-0.67 2.01 -0.34 1.02 0 0 Z " fill="#E038B7" transform="translate(333,170)"/>
<path d="M0 0 C0.33 0.66 0.66 1.32 1 2 C1.66 2 2.32 2 3 2 C3.33 2.99 3.66 3.98 4 5 C3.175 5.763125 2.35 6.52625 1.5 7.3125 C-1.34055197 9.75434142 -1.34055197 9.75434142 -1 13 C-1.78375 13.28875 -2.5675 13.5775 -3.375 13.875 C-6.09671632 14.84912254 -6.09671632 14.84912254 -8 17 C-8.99 17 -9.98 17 -11 17 C-11.33 17.99 -11.66 18.98 -12 20 C-12 16.7 -12 13.4 -12 10 C-10.02 9.01 -8.04 8.02 -6 7 C-6 6.01 -6 5.02 -6 4 C-5.34 4 -4.68 4 -4 4 C-4 3.34 -4 2.68 -4 2 C-2.68 1.34 -1.36 0.68 0 0 Z " fill="#E8399C" transform="translate(343,187)"/>
<path d="M0 0 C0.33 0.66 0.66 1.32 1 2 C2.60875 1.9071875 2.60875 1.9071875 4.25 1.8125 C8 2 8 2 10.0625 3.625 C10.701875 4.07875 11.34125 4.5325 12 5 C15.22174544 4.28776153 15.22174544 4.28776153 18 3 C17.40138258 5.35171131 16.73075648 7.6859378 16 10 C12.89252306 11.55373847 10.25773473 10.58528628 6.875 10.0625 C5.59367188 9.86785156 4.31234375 9.67320312 2.9921875 9.47265625 C2.00476563 9.31667969 1.01734375 9.16070312 0 9 C0 6.03 0 3.06 0 0 Z " fill="#AB30F3" transform="translate(152,194)"/>
<path d="M0 0 C0.33 0 0.66 0 1 0 C1.28783441 3.70986572 1.45251957 7.29998705 1 11 C-1.5 13.6875 -1.5 13.6875 -4 15 C-3.34 15.33 -2.68 15.66 -2 16 C-2.66 16 -3.32 16 -4 16 C-4 19.3 -4 22.6 -4 26 C-5.32 25.67 -6.64 25.34 -8 25 C-8 24.34 -8 23.68 -8 23 C-7.34 23 -6.68 23 -6 23 C-6 22.01 -6 21.02 -6 20 C-6.99 20.33 -7.98 20.66 -9 21 C-8.835 20.4225 -8.67 19.845 -8.5 19.25 C-7.85537969 16.73335631 -7.85537969 16.73335631 -8 13 C-7.34 12.67 -6.68 12.34 -6 12 C-5.26924352 9.6859378 -4.59861742 7.35171131 -4 5 C-3.34 5 -2.68 5 -2 5 C-1.34 3.35 -0.68 1.7 0 0 Z " fill="#E7387F" transform="translate(348,282)"/>
<path d="M0 0 C1.134375 0.020625 2.26875 0.04125 3.4375 0.0625 C3.746875 0.866875 4.05625 1.67125 4.375 2.5 C5.20085345 4.95330405 5.20085345 4.95330405 6.4375 6.0625 C7.90979757 9.87315253 8.67793967 12.97502557 8.4375 17.0625 C7.1175 17.0625 5.7975 17.0625 4.4375 17.0625 C4.17195313 16.43601562 3.90640625 15.80953125 3.6328125 15.1640625 C3.27960938 14.34679687 2.92640625 13.52953125 2.5625 12.6875 C2.21445312 11.87539063 1.86640625 11.06328125 1.5078125 10.2265625 C0.51303933 7.92447701 0.51303933 7.92447701 -1.5625 6.0625 C-1.5625 4.7425 -1.5625 3.4225 -1.5625 2.0625 C-2.5525 1.7325 -3.5425 1.4025 -4.5625 1.0625 C-3.5625 0.0625 -3.5625 0.0625 0 0 Z " fill="#F0A240" transform="translate(277.5625,331.9375)"/>
<path d="M0 0 C0.66 0.33 1.32 0.66 2 1 C1.67 1.99 1.34 2.98 1 4 C1.99 4.33 2.98 4.66 4 5 C2.02 5.66 0.04 6.32 -2 7 C-1.67 7.66 -1.34 8.32 -1 9 C-1.66 9 -2.32 9 -3 9 C-3 9.66 -3 10.32 -3 11 C-0.525 11.495 -0.525 11.495 2 12 C1.360625 12.309375 0.72125 12.61875 0.0625 12.9375 C-1.93610821 13.8345163 -1.93610821 13.8345163 -3 15 C-5.85877909 15.23701239 -8.69883297 15.42219182 -11.5625 15.5625 C-12.36880859 15.60568359 -13.17511719 15.64886719 -14.00585938 15.69335938 C-16.00368805 15.79975262 -18.0018207 15.90040888 -20 16 C-17.23776722 13.23776722 -14.79293383 13.42143709 -11 13 C-11 12.34 -11 11.68 -11 11 C-7.535 10.505 -7.535 10.505 -4 10 C-4.33 9.34 -4.66 8.68 -5 8 C-5.99 8.33 -6.98 8.66 -8 9 C-7.67 7.35 -7.34 5.7 -7 4 C-5.02 4 -3.04 4 -1 4 C-0.67 2.68 -0.34 1.36 0 0 Z " fill="#8A2EE7" transform="translate(222,153)"/>
<path d="M0 0 C0.66 0.66 1.32 1.32 2 2 C1.9375 4.5 1.9375 4.5 1 7 C-2.05715786 8.92164209 -3.7129895 9.03249175 -7.3125 8.625 C-8.199375 8.41875 -9.08625 8.2125 -10 8 C-10.99 9.485 -10.99 9.485 -12 11 C-12.66 11 -13.32 11 -14 11 C-14 8.36 -14 5.72 -14 3 C-13.32453125 2.95101562 -12.6490625 2.90203125 -11.953125 2.8515625 C-11.06109375 2.77679688 -10.1690625 2.70203125 -9.25 2.625 C-8.36828125 2.55539063 -7.4865625 2.48578125 -6.578125 2.4140625 C-4.00933618 2.00149945 -2.24158985 1.28839043 0 0 Z " fill="#E94471" transform="translate(165,241)"/>
<path d="M0 0 C0.94101563 0.00322266 1.88203125 0.00644531 2.8515625 0.00976562 C3.83640625 0.01814453 4.82125 0.02652344 5.8359375 0.03515625 C6.82851562 0.03966797 7.82109375 0.04417969 8.84375 0.04882812 C11.2995391 0.0606348 13.75520854 0.07710225 16.2109375 0.09765625 C12.4609375 2.09765625 12.4609375 2.09765625 10.2109375 2.09765625 C9.8809375 2.75765625 9.5509375 3.41765625 9.2109375 4.09765625 C5.9109375 4.09765625 2.6109375 4.09765625 -0.7890625 4.09765625 C-0.7890625 4.75765625 -0.7890625 5.41765625 -0.7890625 6.09765625 C-3.92255982 7.14215536 -4.77874506 7.0318927 -7.7890625 6.09765625 C-7.4140625 3.66015625 -7.4140625 3.66015625 -6.7890625 1.09765625 C-4.33631109 -0.12871945 -2.7384844 -0.01649689 0 0 Z " fill="#751CDF" transform="translate(230.7890625,150.90234375)"/>
<path d="M0 0 C1.134375 0.020625 2.26875 0.04125 3.4375 0.0625 C3.7675 1.0525 4.0975 2.0425 4.4375 3.0625 C-0.1875 6.0625 -0.1875 6.0625 -3.5625 6.0625 C-3.8925 6.7225 -4.2225 7.3825 -4.5625 8.0625 C-6.55531757 8.31963775 -8.55079861 8.57086152 -10.5546875 8.71875 C-12.87232249 8.97558355 -12.87232249 8.97558355 -15.5625 11.0625 C-18.75 11.1875 -18.75 11.1875 -21.5625 11.0625 C-20.5625 9.0625 -20.5625 9.0625 -18.8125 8.31640625 C-18.07 8.08824219 -17.3275 7.86007813 -16.5625 7.625 C-15.75941406 7.37234375 -14.95632812 7.1196875 -14.12890625 6.859375 C-13.28199219 6.59640625 -12.43507812 6.3334375 -11.5625 6.0625 C-9.87373455 5.50381068 -8.18615914 4.94150672 -6.5 4.375 C-5.1875 3.9375 -3.875 3.5 -2.5625 3.0625 C-3.2225 2.4025 -3.8825 1.7425 -4.5625 1.0625 C-3.5625 0.0625 -3.5625 0.0625 0 0 Z " fill="#A526D5" transform="translate(253.5625,156.9375)"/>
<path d="M0 0 C2.31 0.33 4.62 0.66 7 1 C7.33 1.99 7.66 2.98 8 4 C7.01 4.33 6.02 4.66 5 5 C5.71027344 5.40992188 6.42054688 5.81984375 7.15234375 6.2421875 C8.53099609 7.05042969 8.53099609 7.05042969 9.9375 7.875 C10.85402344 8.40867187 11.77054688 8.94234375 12.71484375 9.4921875 C15 11 15 11 16 13 C12.625 12.6875 12.625 12.6875 9 12 C8.34 11.01 7.68 10.02 7 9 C3.44327821 7.7811879 3.44327821 7.7811879 0 7 C0 4.69 0 2.38 0 0 Z " fill="#EA5144" transform="translate(200,255)"/>
<path d="M0 0 C2 2 2 2 2.125 4.625 C2.08375 5.40875 2.0425 6.1925 2 7 C2.66 6.34 3.32 5.68 4 5 C6.37188193 9.15079337 7.74838855 12.18893073 7 17 C5 18.875 5 18.875 3 20 C1.94595055 16.01803543 2.15901344 13.01804691 3 9 C2.38125 8.938125 1.7625 8.87625 1.125 8.8125 C-1 8 -1 8 -2.25 5.4375 C-2.4975 4.633125 -2.745 3.82875 -3 3 C-2.01 2.01 -1.02 1.02 0 0 Z " fill="#E84B57" transform="translate(325,317)"/>
<path d="M0 0 C1.76923828 0.01353516 1.76923828 0.01353516 3.57421875 0.02734375 C4.47785156 0.03894531 5.38148438 0.05054688 6.3125 0.0625 C5.9825 1.0525 5.6525 2.0425 5.3125 3.0625 C4.3225 3.0625 3.3325 3.0625 2.3125 3.0625 C2.3125 3.7225 2.3125 4.3825 2.3125 5.0625 C1.054375 5.248125 -0.20375 5.43375 -1.5 5.625 C-2.56154297 5.78162109 -2.56154297 5.78162109 -3.64453125 5.94140625 C-5.6875 6.0625 -5.6875 6.0625 -8.6875 5.0625 C-9.0175 5.7225 -9.3475 6.3825 -9.6875 7.0625 C-9.6875 5.0825 -9.6875 3.1025 -9.6875 1.0625 C-6.26517028 -0.07827657 -3.60076783 -0.03565117 0 0 Z " fill="#DD40D0" transform="translate(160.6875,219.9375)"/>
<path d="M0 0 C1.625 1.3125 1.625 1.3125 2.625 3.3125 C1.573125 3.250625 0.52125 3.18875 -0.5625 3.125 C-4.6458366 3.32581983 -6.0803062 4.05823582 -9.375 6.3125 C-11.02869357 7.01072617 -12.69227014 7.68748605 -14.375 8.3125 C-13.385 9.7975 -13.385 9.7975 -12.375 11.3125 C-16.83 11.8075 -16.83 11.8075 -21.375 12.3125 C-16.60137326 7.24956255 -7.58751004 -2.19638449 0 0 Z " fill="#EB4AB4" transform="translate(235.375,201.6875)"/>
<path d="M0 0 C0.33 0 0.66 0 1 0 C1 7.92 1 15.84 1 24 C-1.31 24.33 -3.62 24.66 -6 25 C-5.01 24.34 -4.02 23.68 -3 23 C-1.98131338 22.01904252 -0.97648017 21.02297922 0 20 C-1.98 20.33 -3.96 20.66 -6 21 C-6.33 20.01 -6.66 19.02 -7 18 C-7.66 17.67 -8.32 17.34 -9 17 C-7.02 16.67 -5.04 16.34 -3 16 C-3 16.99 -3 17.98 -3 19 C-2.01 18.01 -1.02 17.02 0 16 C-0.66 15.67 -1.32 15.34 -2 15 C-1.34 15 -0.68 15 0 15 C0 12.03 0 9.06 0 6 C-0.66 5.67 -1.32 5.34 -2 5 C-1.34 5 -0.68 5 0 5 C0 3.35 0 1.7 0 0 Z " fill="#EB6949" transform="translate(167,258)"/>
<path d="M0 0 C0.99 0.33 1.98 0.66 3 1 C2.7834375 2.2684375 2.7834375 2.2684375 2.5625 3.5625 C1.41454754 10.24785294 1.41454754 10.24785294 1 17 C0.34 17 -0.32 17 -1 17 C-1 16.34 -1 15.68 -1 15 C-1.99 14.67 -2.98 14.34 -4 14 C-4 11.36 -4 8.72 -4 6 C-3.01 6.99 -2.02 7.98 -1 9 C-0.67 6.03 -0.34 3.06 0 0 Z " fill="#E53767" transform="translate(335,291)"/>
<path d="M0 0 C0.33 0.99 0.66 1.98 1 3 C3.97 3 6.94 3 10 3 C9.01 4.485 9.01 4.485 8 6 C8.33 6.66 8.66 7.32 9 8 C5.7 8.33 2.4 8.66 -1 9 C-1 9.66 -1 10.32 -1 11 C-1.66 11 -2.32 11 -3 11 C-2.44894091 7.0507432 -1.61064629 3.65079826 0 0 Z " fill="#EB4E84" transform="translate(203,228)"/>
<path d="M0 0 C0.66 0.99 1.32 1.98 2 3 C2.66 2.67 3.32 2.34 4 2 C4.33 3.32 4.66 4.64 5 6 C4.195625 6.5775 3.39125 7.155 2.5625 7.75 C0.02133261 9.98126893 -0.65120368 10.74456771 -1 14 C-1.66 14 -2.32 14 -3 14 C-4.9451 11.08235 -5.45276317 9.37462715 -6 6 C-5.38125 5.938125 -4.7625 5.87625 -4.125 5.8125 C-1.72238859 5.171081 -1.72238859 5.171081 -0.75 2.4375 C-0.5025 1.633125 -0.255 0.82875 0 0 Z " fill="#E7435C" transform="translate(332,307)"/>
<path d="M0 0 C0.33 0.66 0.66 1.32 1 2 C2.60875 1.9071875 2.60875 1.9071875 4.25 1.8125 C8 2 8 2 10.0625 3.625 C10.701875 4.07875 11.34125 4.5325 12 5 C15.22174544 4.28776153 15.22174544 4.28776153 18 3 C17 6 17 6 15.25 7.1875 C12.70039426 8.10819096 10.69076919 8.14948718 8 8 C7.67 7.01 7.34 6.02 7 5 C4.69 5 2.38 5 0 5 C0 3.35 0 1.7 0 0 Z " fill="#AA40F5" transform="translate(152,194)"/>
<path d="M0 0 C0.33 0 0.66 0 1 0 C1 5.28 1 10.56 1 16 C0.67 16 0.34 16 0 16 C0 13.03 0 10.06 0 7 C-0.94875 7.515625 -1.8975 8.03125 -2.875 8.5625 C-3.90625 9.036875 -4.9375 9.51125 -6 10 C-6.66 9.67 -7.32 9.34 -8 9 C-8 7.68 -8 6.36 -8 5 C-6.68 5 -5.36 5 -4 5 C-4 4.34 -4 3.68 -4 3 C-3.01 2.67 -2.02 2.34 -1 2 C-0.67 1.34 -0.34 0.68 0 0 Z " fill="#E14EC5" transform="translate(167,220)"/>
<path d="M0 0 C0.33 0.99 0.66 1.98 1 3 C7.93 3.495 7.93 3.495 15 4 C14.67 4.66 14.34 5.32 14 6 C11.85546875 6.66796875 11.85546875 6.66796875 9.1875 7.1875 C8.31480469 7.36667969 7.44210938 7.54585937 6.54296875 7.73046875 C4.02642222 7.99719949 2.38332645 7.78333107 0 7 C0 4.69 0 2.38 0 0 Z " fill="#BD48F3" transform="translate(151,200)"/>
<path d="M0 0 C2.0625 0.4375 2.0625 0.4375 4 1 C4 1.99 4 2.98 4 4 C4.66 4.33 5.32 4.66 6 5 C6.99 4.67 7.98 4.34 9 4 C8.67 5.32 8.34 6.64 8 8 C3.71 7.34 -0.58 6.68 -5 6 C-5 5.01 -5 4.02 -5 3 C-3.02 3 -1.04 3 1 3 C0.34 2.34 -0.32 1.68 -1 1 C-0.67 0.67 -0.34 0.34 0 0 Z " fill="#EA4951" transform="translate(204,248)"/>
<path d="M0 0 C0.66 0.33 1.32 0.66 2 1 C2 1.66 2 2.32 2 3 C3.32 3.66 4.64 4.32 6 5 C6 5.66 6 6.32 6 7 C5.34 7 4.68 7 4 7 C3.67 7.66 3.34 8.32 3 9 C3 8.01 3 7.02 3 6 C2.34 6 1.68 6 1 6 C0.855625 7.258125 0.71125 8.51625 0.5625 9.8125 C0.26251314 12.42667123 -0.15813297 14.47439892 -1 17 C-4.07692308 11.58461538 -4.07692308 11.58461538 -3.6875 8.625 C-3.460625 8.08875 -3.23375 7.5525 -3 7 C-2.67 7.33 -2.34 7.66 -2 8 C-2 6.35 -2 4.7 -2 3 C-1.34 3 -0.68 3 0 3 C0 2.01 0 1.02 0 0 Z " fill="#E74976" transform="translate(335,286)"/>
<path d="M0 0 C4.62 0 9.24 0 14 0 C10.50972412 3.49027588 8.12973033 4.90534532 3.1875 5.125 C2.465625 5.08375 1.74375 5.0425 1 5 C0.67 3.35 0.34 1.7 0 0 Z " fill="#661BEE" transform="translate(205,151)"/>
<path d="M0 0 C3.375 0.3125 3.375 0.3125 7 1 C7.66 1.99 8.32 2.98 9 4 C9.99 4.66 10.98 5.32 12 6 C11.67 6.66 11.34 7.32 11 8 C8.03 7.67 5.06 7.34 2 7 C1.34 4.69 0.68 2.38 0 0 Z " fill="#EC6852" transform="translate(200,262)"/>
<path d="M0 0 C0.33 0 0.66 0 1 0 C1.79274611 5.02072539 1.79274611 5.02072539 1 8 C-1.69550589 10.81110263 -4.72013294 12.91754472 -8 15 C-8.66 14.67 -9.32 14.34 -10 14 C-9.67 13.01 -9.34 12.02 -9 11 C-8.34 11 -7.68 11 -7 11 C-7 10.34 -7 9.68 -7 9 C-4.4385343 6.70351351 -3.52032428 6 0 6 C0 4.02 0 2.04 0 0 Z " fill="#EE8546" transform="translate(168,290)"/>
<path d="M0 0 C0.33 0.99 0.66 1.98 1 3 C0.505 3.37125 0.01 3.7425 -0.5 4.125 C-2.59755514 6.74694393 -2.21743835 8.73842472 -2 12 C-2.66 12 -3.32 12 -4 12 C-4.33 13.32 -4.66 14.64 -5 16 C-6.76462683 12.91190305 -7 11.76687864 -7 8 C-5.46875 5.859375 -5.46875 5.859375 -3.5 3.75 C-2.8503125 3.04359375 -2.200625 2.3371875 -1.53125 1.609375 C-0.77328125 0.81273437 -0.77328125 0.81273437 0 0 Z " fill="#EA605E" transform="translate(325,314)"/>
<path d="M0 0 C0.33 0.66 0.66 1.32 1 2 C1.33 1.34 1.66 0.68 2 0 C3.32 0 4.64 0 6 0 C6 2.31 6 4.62 6 7 C3.0625 6.625 3.0625 6.625 0 6 C-0.33 5.34 -0.66 4.68 -1 4 C-1.66 4 -2.32 4 -3 4 C-2.67 3.01 -2.34 2.02 -2 1 C-1.34 0.67 -0.68 0.34 0 0 Z " fill="#CD38DE" transform="translate(162,213)"/>
<path d="M0 0 C2.50298434 2.93828597 3.46930939 5.17902761 4 9 C3.01 8.67 2.02 8.34 1 8 C-1.14255793 8.38932856 -1.14255793 8.38932856 -3 9 C-3.33 8.01 -3.66 7.02 -4 6 C-2.66666667 4 -1.33333333 2 0 0 Z " fill="#E643A9" transform="translate(342,180)"/>
<path d="M0 0 C-1.15173355 2.46800047 -2.04783565 4.04783565 -4 6 C-4 5.34 -4 4.68 -4 4 C-4.66 3.67 -5.32 3.34 -6 3 C-6.99 3.495 -6.99 3.495 -8 4 C-8.65772428 7.02934491 -8.65772428 7.02934491 -9 10 C-9.33 10 -9.66 10 -10 10 C-10.48428405 2.61466822 -10.48428405 2.61466822 -8.375 -0.0625 C-5.25187355 -1.29531307 -3.20959534 -0.80239884 0 0 Z " fill="#E97440" transform="translate(161,290)"/>
<path d="M0 0 C2.1875 0 2.1875 0 5 1 C6.96188534 3.50803179 8.49921743 6.19641043 10 9 C7.69 8.34 5.38 7.68 3 7 C3 6.01 3 5.02 3 4 C2.01 3.34 1.02 2.68 0 2 C0 1.34 0 0.68 0 0 Z " fill="#EA5D49" transform="translate(216,265)"/>
<path d="M0 0 C0.33 1.32 0.66 2.64 1 4 C2.98 4 4.96 4 7 4 C7 4.33 7 4.66 7 5 C5.35 5 3.7 5 2 5 C2 5.66 2 6.32 2 7 C4.475 7.99 4.475 7.99 7 9 C6.67 9.66 6.34 10.32 6 11 C3.03 10.505 3.03 10.505 0 10 C0 6.7 0 3.4 0 0 Z " fill="#EB5565" transform="translate(199,241)"/>
<path d="M0 0 C-0.33 0.66 -0.66 1.32 -1 2 C-0.34 2.33 0.32 2.66 1 3 C1 3.99 1 4.98 1 6 C-1.64 5.01 -4.28 4.02 -7 3 C-7 2.01 -7 1.02 -7 0 C-4.3333581 -1.33332095 -2.83319697 -0.67102033 0 0 Z " fill="#ED7A51" transform="translate(247,286)"/>
<path d="M0 0 C1.98 0 3.96 0 6 0 C6.5625 1.9375 6.5625 1.9375 7 4 C6.67 4.33 6.34 4.66 6 5 C6.33 5.99 6.66 6.98 7 8 C6.01 8.495 6.01 8.495 5 9 C5 8.34 5 7.68 5 7 C4.34 7 3.68 7 3 7 C2.690625 6.21625 2.38125 5.4325 2.0625 4.625 C1.07124962 2.07669872 1.07124962 2.07669872 0 0 Z " fill="#EF914C" transform="translate(287,331)"/>
<path d="M0 0 C2.125 0.375 2.125 0.375 4 1 C3.54625 1.4125 3.0925 1.825 2.625 2.25 C0.94049626 4.06408095 0.00734029 5.75285627 -1 8 C-1.66 7.67 -2.32 7.34 -3 7 C-2.67 6.34 -2.34 5.68 -2 5 C-2.66 5 -3.32 5 -4 5 C-4.33 4.01 -4.66 3.02 -5 2 C-4.01 2 -3.02 2 -2 2 C-1.34 1.34 -0.68 0.68 0 0 Z " fill="#CB3BD6" transform="translate(309,154)"/>
<path d="M0 0 C0.99 0.33 1.98 0.66 3 1 C2.67 2.98 2.34 4.96 2 7 C1.34 7 0.68 7 0 7 C-0.33 7.66 -0.66 8.32 -1 9 C-1 8.34 -1 7.68 -1 7 C-1.66 6.67 -2.32 6.34 -3 6 C-2.01 4.02 -1.02 2.04 0 0 Z " fill="#E84E6B" transform="translate(329,306)"/>
<path d="M0 0 C0.66 0.99 1.32 1.98 2 3 C2.66 2.67 3.32 2.34 4 2 C4.33 3.32 4.66 4.64 5 6 C3.35 7.32 1.7 8.64 0 10 C-2.21538462 4.58461538 -2.21538462 4.58461538 -1.125 1.625 C-0.75375 1.08875 -0.3825 0.5525 0 0 Z " fill="#E73D67" transform="translate(332,307)"/>
<path d="M0 0 C-0.33 0.66 -0.66 1.32 -1 2 C-3.06640625 2.4140625 -3.06640625 2.4140625 -5.5625 2.625 C-6.38878906 2.69976562 -7.21507812 2.77453125 -8.06640625 2.8515625 C-9.02353516 2.92503906 -9.02353516 2.92503906 -10 3 C-10.33 2.34 -10.66 1.68 -11 1 C-3.57142857 -1.42857143 -3.57142857 -1.42857143 0 0 Z " fill="#7234F5" transform="translate(198,153)"/>
<path d="M0 0 C0.625 1.875 0.625 1.875 1 4 C0.34 4.66 -0.32 5.32 -1 6 C-1.66 5.67 -2.32 5.34 -3 5 C-2.67 5.99 -2.34 6.98 -2 8 C-2.66 8 -3.32 8 -4 8 C-4.625 5.625 -4.625 5.625 -5 3 C-4.34 2.34 -3.68 1.68 -3 1 C-2.01 1.33 -1.02 1.66 0 2 C0 1.34 0 0.68 0 0 Z " fill="#E93B86" transform="translate(345,308)"/>
<path d="M0 0 C2.75 -0.25 2.75 -0.25 6 0 C8.375 2 8.375 2 10 4 C8.3125 4.6875 8.3125 4.6875 6 5 C1.36923077 2.73846154 1.36923077 2.73846154 0 0 Z " fill="#ED7C50" transform="translate(250,291)"/>
<path d="M0 0 C0.99 0.33 1.98 0.66 3 1 C0.52580611 3.47419389 -0.58030124 3.35659341 -4 3.625 C-4.886875 3.69976562 -5.77375 3.77453125 -6.6875 3.8515625 C-8.12289723 3.94369948 -9.56164871 4 -11 4 C-11 3.34 -11 2.68 -11 2 C-10.28972656 1.93941406 -9.57945312 1.87882813 -8.84765625 1.81640625 C-7.46900391 1.69072266 -7.46900391 1.69072266 -6.0625 1.5625 C-5.14597656 1.48128906 -4.22945312 1.40007812 -3.28515625 1.31640625 C-1.03840268 1.23955024 -1.03840268 1.23955024 0 0 Z " fill="#882CDE" transform="translate(241,153)"/>
<path d="M0 0 C0 2.66666667 0 5.33333333 0 8 C-1.98 8 -3.96 8 -6 8 C-4.02 5.36 -2.04 2.72 0 0 Z " fill="#EB4DA8" transform="translate(213,214)"/>
<path d="M0 0 C1.9375 0.3125 1.9375 0.3125 4 1 C4.33 1.99 4.66 2.98 5 4 C2.69 4.33 0.38 4.66 -2 5 C-2 4.01 -2 3.02 -2 2 C-1.34 2 -0.68 2 0 2 C0 1.34 0 0.68 0 0 Z " fill="#ED7950" transform="translate(264,294)"/>
<path d="M0 0 C0.66 0.66 1.32 1.32 2 2 C2.99 1.34 3.98 0.68 5 0 C5 2.31 5 4.62 5 7 C4.01 7.495 4.01 7.495 3 8 C2.67 7.01 2.34 6.02 2 5 C1.34 4.67 0.68 4.34 0 4 C0 2.68 0 1.36 0 0 Z " fill="#EA4F95" transform="translate(344,293)"/>
<path d="M0 0 C2.97 0.495 2.97 0.495 6 1 C5.67 1.99 5.34 2.98 5 4 C2.36 4.33 -0.28 4.66 -3 5 C-2.505 4.54625 -2.01 4.0925 -1.5 3.625 C0.22609337 2.12364481 0.22609337 2.12364481 0 0 Z " fill="#9222DC" transform="translate(222,163)"/>
<path d="M0 0 C2.475 0.99 2.475 0.99 5 2 C3.68 3.32 2.36 4.64 1 6 C0.01 5.67 -0.98 5.34 -2 5 C-1.125 1.125 -1.125 1.125 0 0 Z " fill="#D240CE" transform="translate(319,157)"/>
<path d="M0 0 C2.31 0 4.62 0 7 0 C7 1.32 7 2.64 7 4 C5.35 4 3.7 4 2 4 C2 3.34 2 2.68 2 2 C1.34 1.34 0.68 0.68 0 0 Z " fill="#E13DB6" transform="translate(160,227)"/>
<path d="M0 0 C0.66 0.33 1.32 0.66 2 1 C1.01 2.485 1.01 2.485 0 4 C1.65 3.67 3.3 3.34 5 3 C2.61426621 4.89213369 0.92824652 6.02391783 -2 7 C-2.125 4.625 -2.125 4.625 -2 2 C-1.34 1.34 -0.68 0.68 0 0 Z " fill="#8C42F5" transform="translate(185,169)"/>
<path d="M0 0 C0.66 0 1.32 0 2 0 C2 1.32 2 2.64 2 4 C3.65 4.33 5.3 4.66 7 5 C3.25 7 3.25 7 1 7 C1 6.34 1 5.68 1 5 C0.34 4.67 -0.32 4.34 -1 4 C-0.67 2.68 -0.34 1.36 0 0 Z " fill="#9E3ADF" transform="translate(227,159)"/>
<path d="M0 0 C0.66 0.66 1.32 1.32 2 2 C3.31747324 2.69748583 4.64914193 3.36959957 6 4 C2.99727245 4.96516243 0.95784231 5.22393475 -2 4 C-2.33 3.01 -2.66 2.02 -3 1 C-2.01 0.67 -1.02 0.34 0 0 Z " fill="#D849DC" transform="translate(161,216)"/>
<path d="M0 0 C0.66 0.99 1.32 1.98 2 3 C0.02 3.66 -1.96 4.32 -4 5 C-4.66 4.01 -5.32 3.02 -6 2 C-4.02 1.34 -2.04 0.68 0 0 Z " fill="#EA47A5" transform="translate(220,215)"/>
<path d="M0 0 C1.98 0.495 1.98 0.495 4 1 C4 1.66 4 2.32 4 3 C3.34 3 2.68 3 2 3 C2 3.66 2 4.32 2 5 C2.99 5.33 3.98 5.66 5 6 C3.35 6.33 1.7 6.66 0 7 C-0.33 6.01 -0.66 5.02 -1 4 C-0.34 4 0.32 4 1 4 C0.67 2.68 0.34 1.36 0 0 Z " fill="#E946A9" transform="translate(335,188)"/>
<path d="M0 0 C0.99 0 1.98 0 3 0 C3.33 1.65 3.66 3.3 4 5 C2.68 5.33 1.36 5.66 0 6 C-1.24546405 3.50907189 -0.7767578 2.58919267 0 0 Z " fill="#E83C8A" transform="translate(344,298)"/>
<path d="M0 0 C-4.75 4 -4.75 4 -7 4 C-7 3.01 -7 2.02 -7 1 C-3.375 -1.125 -3.375 -1.125 0 0 Z " fill="#EB4AB2" transform="translate(313,204)"/>
<path d="M0 0 C1.32 0.33 2.64 0.66 4 1 C3.34 1.433125 2.68 1.86625 2 2.3125 C1.34 2.869375 0.68 3.42625 0 4 C0 4.99 0 5.98 0 7 C-0.99 6.01 -1.98 5.02 -3 4 C-2.67 3.34 -2.34 2.68 -2 2 C-1.34 2 -0.68 2 0 2 C0 1.34 0 0.68 0 0 Z " fill="#BF3ADD" transform="translate(295,151)"/>
<path d="M0 0 C0.66 0.66 1.32 1.32 2 2 C1.625 4.125 1.625 4.125 1 6 C0.01 6 -0.98 6 -2 6 C-1.49396008 3.83125748 -1.00016187 2.00032373 0 0 Z " fill="#E74279" transform="translate(344,277)"/>
<path d="M0 0 C0.99 0.33 1.98 0.66 3 1 C2.67 1.99 2.34 2.98 2 4 C2.66 4.33 3.32 4.66 4 5 C2.68 5 1.36 5 0 5 C-0.5625 3.0625 -0.5625 3.0625 -1 1 C-0.67 0.67 -0.34 0.34 0 0 Z " fill="#EB49AC" transform="translate(225,209)"/>
</svg>
