<?xml version="1.0" encoding="UTF-8"?>
<svg version="1.1" xmlns="http://www.w3.org/2000/svg" width="500" height="500">
<path d="M0 0 C165 0 330 0 500 0 C500 165 500 330 500 500 C335 500 170 500 0 500 C0 335 0 170 0 0 Z " fill="#FFFFFF" transform="translate(0,0)"/>
<path d="M0 0 C66 0 132 0 200 0 C200 66 200 132 200 200 C134 200 68 200 0 200 C0 134 0 68 0 0 Z " fill="#000000" transform="translate(150,150)"/>
<path d="M0 0 C7.59 0 15.18 0 23 0 C23.495 4.455 23.495 4.455 24 9 C26.64779855 17.42803735 32.32174296 23.92605634 40.078125 28.125 C44.60440056 29.97827818 49.15094447 30.56704861 54 31 C54 32.98 54 34.96 54 37 C55.98 37 57.96 37 60 37 C60 44.26 60 51.52 60 59 C48.6798419 59 48.6798419 59 43.9375 57.3125 C43.01839844 56.99925781 42.09929687 56.68601563 41.15234375 56.36328125 C38.41279982 55.17852186 35.90152287 53.8730759 33.30297852 52.41479492 C32.49611099 51.96303391 31.68924347 51.51127289 30.85792542 51.04582214 C29.93825233 50.52814018 29.93825233 50.52814018 29 50 C29.00444122 50.60863892 29.00888245 51.21727783 29.01345825 51.84436035 C29.0578539 58.20383344 29.08793366 64.56326217 29.10986328 70.92285156 C29.1198939 73.29331248 29.1335216 75.6637611 29.15087891 78.03417969 C29.17525643 81.44990073 29.18651279 84.86545755 29.1953125 88.28125 C29.20563507 89.33364868 29.21595764 90.38604736 29.22659302 91.47033691 C29.22844326 103.72390628 25.8505475 115.1578421 17.375 124.375 C8.02742747 132.98696702 -3.82248465 136.57796567 -16.296875 136.37890625 C-25.27539701 135.46021782 -34.62566188 131.56691631 -41 125 C-41 124.34 -41 123.68 -41 123 C-41.556875 122.773125 -42.11375 122.54625 -42.6875 122.3125 C-51.74413007 117.1722505 -55.64184831 108.01328681 -59.25 98.8125 C-61.41751904 87.79427823 -60.56960491 77.45359187 -54.64453125 67.7890625 C-53.19044341 65.75411919 -51.65047243 63.87826161 -50 62 C-49.49855469 61.39414063 -48.99710938 60.78828125 -48.48046875 60.1640625 C-43.11381578 54.18370468 -35.01562131 49.30347487 -27 48 C-24.5842094 47.93168013 -22.16665287 47.91512358 -19.75 47.9375 C-17.85507813 47.95103516 -17.85507813 47.95103516 -15.921875 47.96484375 C-14.95765625 47.97644531 -13.9934375 47.98804688 -13 48 C-13 49.98 -13 51.96 -13 54 C-11.02 54 -9.04 54 -7 54 C-7 61.26 -7 68.52 -7 76 C-10.031875 76.37125 -10.031875 76.37125 -13.125 76.75 C-19.11671812 77.69982719 -23.48309979 78.57002873 -27.23828125 83.6875 C-30.3370217 88.96920193 -30.70121363 93.98959749 -30 100 C-29.12899451 103.4614054 -29.12899451 103.4614054 -28 106 C-20.85669239 107.7858269 -15.19139774 107.77704032 -8.7578125 104.20703125 C-4.9970696 101.62465446 -2.79569507 98.11130457 -1 94 C-0.694845 92.02418702 -0.694845 92.02418702 -0.7215271 89.95037842 C-0.71036362 89.15394928 -0.69920013 88.35752014 -0.68769836 87.53695679 C-0.68553818 86.67236847 -0.68337799 85.80778015 -0.68115234 84.91699219 C-0.66608391 83.54086258 -0.66608391 83.54086258 -0.65071106 82.13693237 C-0.61983971 79.10691957 -0.60283284 76.0769953 -0.5859375 73.046875 C-0.56722904 70.94508094 -0.54765587 68.8432944 -0.5272522 66.74151611 C-0.47589101 61.2112268 -0.43628654 55.68091312 -0.39910889 50.1505127 C-0.35909429 44.50653029 -0.30799033 38.86264958 -0.2578125 33.21875 C-0.16100591 22.14589761 -0.07764106 11.07300338 0 0 Z " fill="#FDFDFD" transform="translate(250,182)"/>
<path d="M0 0 C0.33 0 0.66 0 1 0 C1 1.98 1 3.96 1 6 C2.98 6 4.96 6 7 6 C7 13.26 7 20.52 7 28 C-4.3201581 28 -4.3201581 28 -9.0625 26.3125 C-9.98160156 25.99925781 -10.90070313 25.68601563 -11.84765625 25.36328125 C-14.58720018 24.17852186 -17.09847713 22.8730759 -19.69702148 21.41479492 C-20.50388901 20.96303391 -21.31075653 20.51127289 -22.14207458 20.04582214 C-22.75518997 19.70070084 -23.36830536 19.35557953 -24 19 C-23.99555878 19.60863892 -23.99111755 20.21727783 -23.98654175 20.84436035 C-23.9421461 27.20383344 -23.91206634 33.56326217 -23.89013672 39.92285156 C-23.8801061 42.29331248 -23.8664784 44.6637611 -23.84912109 47.03417969 C-23.82474357 50.44990073 -23.81348721 53.86545755 -23.8046875 57.28125 C-23.79436493 58.33364868 -23.78404236 59.38604736 -23.77340698 60.47033691 C-23.77155674 72.72390628 -27.1494525 84.1578421 -35.625 93.375 C-44.97257253 101.98696702 -56.82248465 105.57796567 -69.296875 105.37890625 C-78.77581742 104.40901446 -86.90611492 100.236618 -94 94 C-90.72668088 94 -89.10786402 94.72542309 -86.125 96 C-75.85919179 99.80064836 -65.1841088 98.66744807 -55 95 C-52.10910652 93.58136593 -49.57242349 91.92931762 -47 90 C-45.453125 88.9171875 -45.453125 88.9171875 -43.875 87.8125 C-37.43169215 82.22947031 -32.60550284 72.62344557 -31.69847107 64.19963074 C-31.55900404 60.93278435 -31.50661066 57.67602093 -31.48828125 54.40625 C-31.47033005 53.21898315 -31.45237885 52.03171631 -31.43388367 50.80847168 C-31.37996471 47.03901658 -31.3459431 43.26968681 -31.3125 39.5 C-31.27931079 36.93487847 -31.24481965 34.36977343 -31.20898438 31.8046875 C-31.12424865 25.53657074 -31.05582102 19.26843739 -31 13 C-26.22345101 14.90406256 -21.48268177 16.88695292 -16.7421875 18.87890625 C-12.82337453 20.48104204 -9.51669279 21.21627236 -5.3125 21.5625 C-3.559375 21.706875 -1.80625 21.85125 0 22 C0 14.74 0 7.48 0 0 Z " fill="#F33258" transform="translate(303,213)"/>
<path d="M0 0 C7.59 0 15.18 0 23 0 C23 1.98 23 3.96 23 6 C17.72 6 12.44 6 7 6 C7.00888245 7.12006943 7.01776489 8.24013885 7.0269165 9.39414978 C7.10815654 19.97219732 7.16803938 30.55018119 7.20724869 41.12847042 C7.22808459 46.5663298 7.25632928 52.00393644 7.30175781 57.44165039 C7.34535798 62.69363945 7.36916715 67.94538606 7.37950897 73.19754219 C7.38687492 75.19693376 7.4012588 77.19631271 7.42292023 79.19560051 C7.4521426 82.00560607 7.45594816 84.81462175 7.45410156 87.62475586 C7.47567322 88.85259544 7.47567322 88.85259544 7.49768066 90.10523987 C7.44576896 97.45074592 5.28324159 103.3826255 0.4375 108.9375 C-3.91613028 112.62134101 -6.21104809 113.29453821 -11.875 113.3125 C-13.08929688 113.32925781 -14.30359375 113.34601563 -15.5546875 113.36328125 C-20.22464486 112.87087078 -22.83505483 111.40596831 -25.8125 107.8125 C-26.204375 107.214375 -26.59625 106.61625 -27 106 C-26.505 106.165 -26.01 106.33 -25.5 106.5 C-19.08507282 107.78298544 -14.44113826 107.36071986 -8.7578125 104.20703125 C-4.9970696 101.62465446 -2.79569507 98.11130457 -1 94 C-0.694845 92.02418702 -0.694845 92.02418702 -0.7215271 89.95037842 C-0.71036362 89.15394928 -0.69920013 88.35752014 -0.68769836 87.53695679 C-0.68553818 86.67236847 -0.68337799 85.80778015 -0.68115234 84.91699219 C-0.67110672 83.99957245 -0.6610611 83.08215271 -0.65071106 82.13693237 C-0.61983971 79.10691957 -0.60283284 76.0769953 -0.5859375 73.046875 C-0.56722904 70.94508094 -0.54765587 68.8432944 -0.5272522 66.74151611 C-0.47589101 61.2112268 -0.43628654 55.68091312 -0.39910889 50.1505127 C-0.35909429 44.50653029 -0.30799033 38.86264958 -0.2578125 33.21875 C-0.16100591 22.14589761 -0.07764106 11.07300338 0 0 Z " fill="#30EEE9" transform="translate(250,182)"/>
<path d="M0 0 C1.89492187 0.01353516 1.89492187 0.01353516 3.828125 0.02734375 C4.79234375 0.03894531 5.7565625 0.05054688 6.75 0.0625 C6.75 2.0425 6.75 4.0225 6.75 6.0625 C5.78320312 6.20945313 4.81640625 6.35640625 3.8203125 6.5078125 C-8.0044941 8.47455428 -17.55398016 12.4032098 -25.25 22.0625 C-30.21543002 29.61629247 -32.59570621 36.4796901 -32.5 45.5 C-32.50773438 46.22509766 -32.51546875 46.95019531 -32.5234375 47.69726562 C-32.49808064 54.75281096 -30.61718391 60.62192377 -27.625 67 C-27.17898437 67.95777344 -26.73296875 68.91554688 -26.2734375 69.90234375 C-25.93570313 70.61519531 -25.59796875 71.32804687 -25.25 72.0625 C-30.41496248 70.34084584 -32.98309873 65.46100241 -35.45703125 60.77734375 C-36.470942 58.56344875 -37.38327339 56.33765736 -38.25 54.0625 C-38.6625 53.010625 -39.075 51.95875 -39.5 50.875 C-41.66751904 39.85677823 -40.81960491 29.51609187 -34.89453125 19.8515625 C-33.44044341 17.81661919 -31.90047243 15.94076161 -30.25 14.0625 C-29.74855469 13.45664063 -29.24710938 12.85078125 -28.73046875 12.2265625 C-21.18041329 3.8131187 -11.07305595 -0.1025283 0 0 Z " fill="#2AEBE6" transform="translate(230.25,229.9375)"/>
<path d="M0 0 C1.98 0 3.96 0 6 0 C6 7.26 6 14.52 6 22 C3.97875 22.2475 1.9575 22.495 -0.125 22.75 C-6.11671812 23.69982719 -10.48309979 24.57002873 -14.23828125 29.6875 C-17.32939941 34.95621 -17.72032483 40.00072319 -17 46 C-16.14939987 48.97980201 -16.14939987 48.97980201 -15 51 C-19.61614351 49.18651505 -21.93714895 45.96627445 -24.25 41.6875 C-25.7294715 36.38606045 -25.67021925 31.89723304 -23.5 26.875 C-20.92078651 22.35914525 -17.84166678 19.03939162 -13 17 C-8.53437034 16.51916473 -4.51400642 16.7178746 0 17 C0 11.39 0 5.78 0 0 Z " fill="#F93057" transform="translate(237,236)"/>
<path d="M0 0 C1.98 0 3.96 0 6 0 C6.18175781 0.80824219 6.36351562 1.61648437 6.55078125 2.44921875 C6.92783203 4.05216797 6.92783203 4.05216797 7.3125 5.6875 C7.55613281 6.74324219 7.79976563 7.79898438 8.05078125 8.88671875 C8.87728087 12.05071876 8.87728087 12.05071876 10.66796875 14.76953125 C11.10753906 15.50558594 11.54710937 16.24164063 12 17 C11.67 17.66 11.34 18.32 11 19 C0 7.47743468 0 7.47743468 0 0 Z " fill="#EE3257" transform="translate(273,188)"/>
<path d="M0 0 C4.62 0.99 9.24 1.98 14 3 C14 4.65 14 6.3 14 8 C8.49897163 7.58742287 4.23798336 5.45277325 0 2 C0 1.34 0 0.68 0 0 Z " fill="#33EAE4" transform="translate(289,210)"/>
</svg>
