<?xml version="1.0" encoding="UTF-8"?>
<svg version="1.1" xmlns="http://www.w3.org/2000/svg" width="500" height="500">
<path d="M0 0 C165 0 330 0 500 0 C500 165 500 330 500 500 C335 500 170 500 0 500 C0 335 0 170 0 0 Z " fill="#FEFEFE" transform="translate(0,0)"/>
<path d="M0 0 C19.73733958 15.63594005 35.7352834 37.66065956 39.87353516 63.04638672 C43.16287196 91.88290603 38.02473844 119.37813616 19.78466797 142.35546875 C16.75290279 145.95848231 13.51740294 149.30839372 10.16650391 152.61474609 C9.42787109 153.35208984 8.68923828 154.08943359 7.92822266 154.84912109 C-12.55532283 174.17180752 -39.19966308 180.50117773 -66.50927734 179.99755859 C-78.57232539 179.49105997 -90.13697422 176.07145227 -100.80224609 170.43505859 C-108.97394509 168.22364521 -117.9025445 171.16357534 -125.83349609 173.36474609 C-126.81519775 173.62916504 -127.79689941 173.89358398 -128.80834961 174.16601562 C-130.82431267 174.70904364 -132.8393767 175.25542052 -134.85351562 175.80517578 C-139.48482044 177.06336084 -144.12820374 178.27479315 -148.77099609 179.48974609 C-150.3427047 179.90345156 -151.9143292 180.31747678 -153.48583984 180.73193359 C-154.59056641 181.02326172 -155.69529297 181.31458984 -156.83349609 181.61474609 C-158.00856793 178.17976816 -157.64420467 176.11200871 -156.57568359 172.67724609 C-156.13482422 171.22499634 -156.13482422 171.22499634 -155.68505859 169.7434082 C-155.36279297 168.71094971 -155.04052734 167.67849121 -154.70849609 166.61474609 C-154.05737275 164.45018763 -153.40897757 162.2848068 -152.76318359 160.11865234 C-152.43801758 159.03084473 -152.11285156 157.94303711 -151.77783203 156.82226562 C-150.38322194 152.08535059 -149.0754308 147.33129069 -147.83349609 142.55224609 C-147.50454346 141.35051758 -147.50454346 141.35051758 -147.16894531 140.12451172 C-145.19646506 132.39252074 -146.579315 126.5742733 -149.70849609 119.30224609 C-160.17347552 93.97662258 -160.91662126 68.07250086 -150.56396484 42.54052734 C-146.16521927 32.25817401 -140.28566103 22.96726553 -132.83349609 14.61474609 C-132.11935547 13.80650391 -131.40521484 12.99826172 -130.66943359 12.16552734 C-97.3818652 -23.29296942 -39.2864229 -29.68191259 0 0 Z " fill="#FEFEFE" transform="translate(308.83349609375,168.38525390625)"/>
<path d="M0 0 C19.73733958 15.63594005 35.7352834 37.66065956 39.87353516 63.04638672 C43.16287196 91.88290603 38.02473844 119.37813616 19.78466797 142.35546875 C16.75290279 145.95848231 13.51740294 149.30839372 10.16650391 152.61474609 C9.42787109 153.35208984 8.68923828 154.08943359 7.92822266 154.84912109 C-12.55532283 174.17180752 -39.19966308 180.50117773 -66.50927734 179.99755859 C-78.57232539 179.49105997 -90.13697422 176.07145227 -100.80224609 170.43505859 C-108.97394509 168.22364521 -117.9025445 171.16357534 -125.83349609 173.36474609 C-126.81519775 173.62916504 -127.79689941 173.89358398 -128.80834961 174.16601562 C-130.82431267 174.70904364 -132.8393767 175.25542052 -134.85351562 175.80517578 C-139.48482044 177.06336084 -144.12820374 178.27479315 -148.77099609 179.48974609 C-150.3427047 179.90345156 -151.9143292 180.31747678 -153.48583984 180.73193359 C-154.59056641 181.02326172 -155.69529297 181.31458984 -156.83349609 181.61474609 C-158.00856793 178.17976816 -157.64420467 176.11200871 -156.57568359 172.67724609 C-156.13482422 171.22499634 -156.13482422 171.22499634 -155.68505859 169.7434082 C-155.36279297 168.71094971 -155.04052734 167.67849121 -154.70849609 166.61474609 C-154.05737275 164.45018763 -153.40897757 162.2848068 -152.76318359 160.11865234 C-152.43801758 159.03084473 -152.11285156 157.94303711 -151.77783203 156.82226562 C-150.38322194 152.08535059 -149.0754308 147.33129069 -147.83349609 142.55224609 C-147.50454346 141.35051758 -147.50454346 141.35051758 -147.16894531 140.12451172 C-145.19646506 132.39252074 -146.579315 126.5742733 -149.70849609 119.30224609 C-160.17347552 93.97662258 -160.91662126 68.07250086 -150.56396484 42.54052734 C-146.16521927 32.25817401 -140.28566103 22.96726553 -132.83349609 14.61474609 C-132.11935547 13.80650391 -131.40521484 12.99826172 -130.66943359 12.16552734 C-97.3818652 -23.29296942 -39.2864229 -29.68191259 0 0 Z M-117.83349609 23.61474609 C-118.66365234 24.45005859 -119.49380859 25.28537109 -120.34912109 26.14599609 C-125.73323373 31.77970336 -129.453637 37.6185363 -132.83349609 44.61474609 C-133.28595703 45.48873047 -133.73841797 46.36271484 -134.20458984 47.26318359 C-143.40696919 65.88639639 -143.01814489 87.65101646 -136.69677734 107.11474609 C-134.5683852 112.91578965 -132.15129779 118.25168752 -128.75146484 123.41943359 C-126.26289765 129.37081557 -128.37756959 135.25721346 -130.27099609 141.05224609 C-132.06471234 146.60422495 -133.26285476 151.7968281 -133.83349609 157.61474609 C-129.9148516 157.09718927 -126.19058916 156.19713351 -122.39208984 155.13427734 C-121.39628906 154.85777344 -120.40048828 154.58126953 -119.37451172 154.29638672 C-117.29881258 153.71508646 -115.2258676 153.12386397 -113.15576172 152.52294922 C-112.16125 152.2503125 -111.16673828 151.97767578 -110.14208984 151.69677734 C-109.24288818 151.44130127 -108.34368652 151.1858252 -107.41723633 150.92260742 C-102.48027879 150.33435235 -98.33935173 153.34997039 -94.02099609 155.48974609 C-72.47771298 165.31059471 -49.31555074 165.22132511 -27.14599609 157.36474609 C-16.50862212 153.02717612 -7.98430026 146.63323201 0.16650391 138.61474609 C0.93994141 137.85419922 1.71337891 137.09365234 2.51025391 136.31005859 C17.59641717 120.55225107 24.61118319 99.68998742 24.60327148 78.04882812 C23.99031954 58.79438984 16.14577884 39.76041859 3.16650391 25.61474609 C2.50263672 24.85935547 1.83876953 24.10396484 1.15478516 23.32568359 C-12.65121785 8.47338461 -32.85466602 -0.68057126 -53.00927734 -1.70166016 C-78.36161716 -2.49315651 -100.13714218 4.95313651 -117.83349609 23.61474609 Z " fill="#67CF74" transform="translate(308.83349609375,168.38525390625)"/>
<path d="M0 0 C9.8497573 18.94506511 9.8497573 18.94506511 10.1875 25.8125 C8.82037948 29.48213928 7.02778878 31.49736567 4.1796875 34.12890625 C2.73718634 36.03308173 2.73718634 36.03308173 3.07421875 38.84765625 C7.13635644 52.6794922 21.22228827 61.28085961 33.01953125 67.84765625 C36.42210062 69.16319749 37.6520869 69.41189945 41 68 C42.94520182 66.17974545 44.61067721 64.45699637 46.3125 62.4375 C46.9940918 61.65729492 46.9940918 61.65729492 47.68945312 60.86132812 C48.80339243 59.58322934 49.90314888 58.29279345 51 57 C59.23146673 58.85934307 70.86397236 62.86397236 77 69 C76.94044797 76.07180354 75.47423552 81.52576448 70.375 86.625 C64.02200489 91.43645953 57.59529881 93.86546466 49.5703125 93.578125 C23.52263138 89.36033856 1.75941782 71.32195226 -13.27685547 50.49584961 C-20.49253179 40.20487683 -25.43188951 29.85075522 -24 17 C-23.10618455 13.67629105 -21.78277303 10.93570409 -20 8 C-19.54882812 7.22914063 -19.09765625 6.45828125 -18.6328125 5.6640625 C-13.67395019 -1.36716017 -8.07685897 -0.87448699 0 0 Z " fill="#67CF73" transform="translate(224,204)"/>
</svg>
